<svg width="322" height="228" viewBox="0 0 322 228" xmlns="http://www.w3.org/2000/svg" xmlns:xlink="http://www.w3.org/1999/xlink"><svg id="british-flag" viewBox="-605 2534.3 22 12" width="22" height="12" x="276.2" y="121.01" xmlns="http://www.w3.org/2000/svg"><style>.ast0{fill:#00247d}.ast1{fill:#fff}.ast2{fill:#cf142b}</style><path class="ast0" d="M-604 2535.3h20v10h-20z"/><path class="ast1" d="M-584 2544.2v1.1h-2.2l-6.1-3.1-.6-.2-.1-.1-1-.5-.2-.1-.8-.4-.1-.1-.6-.2-.2-.1-3.7-1.9-4.4-2.2v-1.1h2.2l6.1 3 .6.3.1.1 1 .5.2.1.8.4h.1l.6.3.2.1 3.7 1.9z"/><path class="ast2" d="M-593.6 2539.8l-.2.4v.1l-.1.1-.1-.1-.7-.4-.3-.1-.1-.1-.6-.2-.3-.2-1.3-.7-6.7-3.3h1.5l6.7 3.3.1.1.7.3.5.3.1.1zm9.6 5.5h-1.5l-6.7-3.3-.1-.1-.7-.4-.5-.2-.1-.1-.6-.2.3-.6h.1l.5.3.3.1h.1l.6.3.3.2 1.3.7z"/><path class="ast1" d="M-584 2535.3v1.1l-4.4 2.2-3.4 1.7-.5.3-.6.2-.1.1-.6.3-.2.1-.2.1-1 .5-.1.1-.6.2-6.1 3.1h-2.2v-1.1l4.4-2.2 3.4-1.7.5-.3.6-.3h.1l.6-.3.2-.1.2-.1 1-.5.1-.1.6-.3 6.1-3z"/><path class="ast2" d="M-593.9 2540.2l-.1.1-1 .5h-.1l-.6.3-.3.2-1.3.7-6.7 3.3v-.8l5.2-2.5 1.3-.7 1.6-.8.2-.1 1-.5.5-.3z"/><path class="ast2" d="M-584 2535.3v.7l-5.2 2.6-1.3.7-1.6.8-.2.1-1.3.6-.2-.4v-.1l-.1-.1h.1l.8-.4.1-.1.6-.2.3-.2 1.3-.7z"/><path class="ast1" d="M-595.7 2535.3h3.3v10h-3.3z"/><path class="ast1" d="M-604 2538.6h20v3.3h-20z"/><path class="ast2" d="M-595 2535.3h2v10h-2z"/><path class="ast2" d="M-604 2539.3h20v2h-20z"/></svg><svg id="facebook" data-name="Layer 1" width="23.23" height="44.01" viewBox="-1 -1 23.23 44.01" y="183.06" xmlns="http://www.w3.org/2000/svg"><defs><style>.bcls-1{fill:#fff}</style></defs><title>facebook</title><path class="bcls-1" d="M21.23.31V7H17.4a3.55 3.55 0 0 0-2.85.91 4.26 4.26 0 0 0-.74 2.72v4.77H21l-1 7.47h-6.19V42H6.27V22.85H0v-7.47h6.27V9.85q0-4.69 2.55-7.28A9 9 0 0 1 15.63 0a39.57 39.57 0 0 1 5.6.31z"/></svg><svg id="facebook-mini" viewBox="-1 -1 25 25" width="25" height="25" x="59.98" y="183.06" xmlns="http://www.w3.org/2000/svg"><style>.cst0{fill:#3b5998}.cst1{fill:#fff}</style><path class="cst0" d="M5.5 0h12c3 0 5.5 2.5 5.5 5.5v12c0 3-2.5 5.5-5.5 5.5h-12c-3 0-5.5-2.5-5.5-5.5v-12C0 2.5 2.5 0 5.5 0z"/><path class="cst1" d="M12.3 23v-7.9H9.6V12h2.7V9.8c0-2.6 1.7-4 4.1-4 1.2 0 2.2.1 2.4.1v2.7h-1.7c-1.3 0-1.6.6-1.6 1.5v2h3.1l-.4 3.1h-2.7V23h-3.2z"/></svg><svg id="flaga-polski" viewBox="-1757 5261.6 22 14.5" width="22" height="14.5" x="184.28" y="139" xmlns="http://www.w3.org/2000/svg"><style>.dst0{fill:#fff}.dst1{fill:#dc143c}</style><path class="dst0" d="M-1756 5262.6h20v12.5h-20z"/><path class="dst1" d="M-1756 5268.8h20v6.3h-20z"/></svg><svg id="googleplus" viewBox="-1 -1 190 62" width="190" height="62" y="77" xmlns="http://www.w3.org/2000/svg"><style>.est0{fill:url(#eSVGID_1_)}.est1{fill:#fff;stroke:#fff;stroke-miterlimit:10}</style><linearGradient id="eSVGID_1_" gradientUnits="userSpaceOnUse" x1="27.772" y1="-10.373" x2="185.018" y2="90.233" gradientTransform="matrix(1 0 0 -1 0 62)"><stop offset="0" stop-color="#a9291c"/><stop offset="1" stop-color="#d84937"/></linearGradient><path class="est0" d="M0 0h188v60H0z"/><path class="est1" d="M117.5 18.6h-8v-8h-2.3v8h-8v2.3h8v8h2.3v-8h8zM71.3 39.5c3.8-5.3 11.1-5.8 14.7-5.3-1-1.1-3.5-3.1-1.7-6.4-8.1 1-10.7-4-11.1-7.9-.7-6.6 5-11.3 11-11.4h13.1c-.4.4-2.6 1.9-3.2 1.9h-3.4c8.8 8.3.3 15.2-1.5 16.6-3.5 4.3 7.5 6.4 6.9 13.6 0 6.6-5.5 10.9-14.2 10.9-9.5 0-14.1-6-10.6-12zm19.3 8c3.4-2.6 2.6-6.5 0-9.1-1.6-1.6-3.5-3-7.6-2.6-4.8.6-8.3 2.9-8.1 6.4 1 7.7 12 7.9 15.7 5.3zm-2.3-22.4c4-3.3.3-14.6-5.1-14.6-3.4 0-5.2 2.5-5.4 6-.3 6.5 5.7 12.5 10.5 8.6z"/></svg><svg id="googleplus-mini" viewBox="-1 -1 25 24.2" width="25" height="24.2" x="159.28" y="139" xmlns="http://www.w3.org/2000/svg"><style>.fst0{fill:url(#fSVGID_1_)}.fst1{fill:#fff}</style><linearGradient id="fSVGID_1_" gradientUnits="userSpaceOnUse" x1="1.922" y1="17.227" x2="24.663" y2="2.678"><stop offset="0" stop-color="#a9291c"/><stop offset="1" stop-color="#d84937"/></linearGradient><path class="fst0" d="M4.9 22.2H18c2.7 0 4.9-2.2 4.9-4.9V4.9C23 2.2 20.8 0 18.1 0H4.9C2.2 0 0 2.2 0 4.9v12.3c0 2.8 2.2 5 4.9 5z"/><path class="fst1" d="M3 14.9c1.5-2.1 4.5-2.3 5.9-2.1-.4-.4-1.4-1.2-.7-2.6C5 10.6 3.9 8.6 3.8 7c-.3-2.7 2-4.6 4.4-4.6h5.3c-.2.2-1.1.7-1.3.7h-1.4c3.5 3.3.1 6.1-.6 6.7-1.4 1.7 3 2.6 2.8 5.5 0 2.6-2.2 4.4-5.7 4.4-3.9 0-5.7-2.4-4.3-4.8zm7.8 3.2c1.4-1.1 1.1-2.6 0-3.7-.6-.6-1.4-1.2-3.1-1-1.9.2-3.3 1.1-3.3 2.6.4 3.1 4.9 3.2 6.4 2.1zm-1-9c1.6-1.3.1-5.9-2.1-5.9-1.4 0-2.1 1-2.2 2.4 0 2.7 2.4 5.1 4.3 3.5zm10.7.7h-2.6V7.2h-.8v2.6h-2.6v.8h2.6v2.6h.8v-2.6h2.6z"/></svg><svg id="instagram" data-name="Layer 1" width="44.01" height="44.01" viewBox="-1 -1 44.01 44.01" x="276.2" y="77" xmlns="http://www.w3.org/2000/svg"><defs><style>.gcls-1{fill:#fff}</style></defs><title>instagram</title><path class="gcls-1" d="M37.25 35.49V17.77h-3.69a11.77 11.77 0 0 1 .57 3.58 12.12 12.12 0 0 1-1.75 6.36 12.76 12.76 0 0 1-4.76 4.59 13.13 13.13 0 0 1-6.56 1.7 12.78 12.78 0 0 1-9.19-3.71 12 12 0 0 1-3.83-9 11.77 11.77 0 0 1 .49-3.56H4.68v17.76a1.63 1.63 0 0 0 1.6 1.67h29.3a1.63 1.63 0 0 0 1.17-.47 1.59 1.59 0 0 0 .5-1.2zm-7.77-14.57A7.75 7.75 0 0 0 27 15.14a8.28 8.28 0 0 0-6-2.4 8.25 8.25 0 0 0-5.91 2.39 7.75 7.75 0 0 0-2.47 5.78 7.75 7.75 0 0 0 2.47 5.79A8.25 8.25 0 0 0 21 29.1a8.28 8.28 0 0 0 6-2.4 7.75 7.75 0 0 0 2.48-5.78zm7.76-9.84V6.56a1.84 1.84 0 0 0-.54-1.31 1.8 1.8 0 0 0-1.31-.56h-4.78a1.8 1.8 0 0 0-1.31.56 1.84 1.84 0 0 0-.54 1.31v4.52A1.87 1.87 0 0 0 30.6 13h4.8a1.87 1.87 0 0 0 1.85-1.89zM42 5.39v31.23A5.41 5.41 0 0 1 36.62 42H5.39a5.19 5.19 0 0 1-3.8-1.59A5.19 5.19 0 0 1 0 36.62V5.39a5.19 5.19 0 0 1 1.59-3.8A5.19 5.19 0 0 1 5.39 0h31.23a5.19 5.19 0 0 1 3.8 1.59A5.19 5.19 0 0 1 42 5.39z"/></svg><svg id="instagram-mini" viewBox="-1 -1 25 25.1" width="25" height="25.1" x="134.28" y="139" xmlns="http://www.w3.org/2000/svg"><style>.hst0{fill:url(#hSVGID_1_)}.hst1{fill:url(#hSVGID_2_)}.hst2{fill:#fff}</style><radialGradient id="hSVGID_1_" cx="-288.385" cy="731.137" r="11.536" gradientTransform="matrix(0 -1.982 1.8439 0 -1342.013 -546.73)" gradientUnits="userSpaceOnUse"><stop offset="0" stop-color="#fd5"/><stop offset=".1" stop-color="#fd5"/><stop offset=".5" stop-color="#ff543e"/><stop offset="1" stop-color="#c837ab"/></radialGradient><path class="hst0" d="M11.5 0H5.1c-1 .1-1.6.2-2.3.5-.5.3-.9.6-1.3 1C.7 2.3.3 3.2.2 4.3 0 4.9 0 5 0 7.8v10.3c.1 1 .2 1.5.5 2.2.6 1.2 1.8 2.2 3.2 2.5.5.2 1 .2 1.7.3h12.2c.8 0 1.2-.1 1.8-.2 1.4-.4 2.5-1.3 3.2-2.6.3-.6.5-1.3.5-2.2v-13c-.1-.9-.2-1.5-.5-2.2-.2-.5-.5-.9-1-1.4C20.8.8 19.9.3 18.8.2c-.6-.2-.7-.2-3.5-.2h-3.8z"/><radialGradient id="hSVGID_2_" cx="305.402" cy="399.586" r="11.536" gradientTransform="matrix(.1739 .8687 -3.5818 .7172 1374.254 -550.224)" gradientUnits="userSpaceOnUse"><stop offset="0" stop-color="#3771c8"/><stop offset=".128" stop-color="#3771c8"/><stop offset="1" stop-color="#60f" stop-opacity="0"/></radialGradient><path class="hst1" d="M11.5 0H5.1c-1 .1-1.6.2-2.3.5-.5.3-.9.6-1.3 1C.7 2.3.3 3.2.2 4.3 0 4.9 0 5 0 7.8v10.3c.1 1 .2 1.5.5 2.2.6 1.2 1.8 2.2 3.2 2.5.5.2 1 .2 1.7.3h12.2c.8 0 1.2-.1 1.8-.2 1.4-.4 2.5-1.3 3.2-2.6.3-.6.5-1.3.5-2.2v-13c-.1-.9-.2-1.5-.5-2.2-.2-.5-.5-.9-1-1.4C20.8.8 19.9.3 18.8.2c-.6-.2-.7-.2-3.5-.2h-3.8z"/><path class="hst2" d="M11.5 3C9.2 3 8.9 3 8 3.1c-.8 0-1.5.2-2.1.4s-1 .5-1.5 1c-.4.4-.7.9-.9 1.5-.3.5-.4 1.2-.4 2-.1.9-.1 1.2-.1 3.5s0 2.6.1 3.5c.1.9.2 1.5.4 2.1.2.5.5 1 1 1.5s.9.8 1.5 1c.5.2 1.2.4 2.1.4.9.1 1.2.1 3.5.1s2.6 0 3.5-.1c.9-.1 1.5-.2 2.1-.4.5-.2 1-.5 1.5-1s.8-.9 1-1.5c.2-.5.4-1.2.4-2.1.1-.9.1-1.2.1-3.5s0-2.6-.1-3.5-.1-1.5-.3-2.1-.5-1-1-1.5-.9-.8-1.5-1c-.7-.2-1.3-.3-2.2-.3-.9-.1-1.3-.1-3.6-.1zm-.7 1.5h.8c2.3 0 2.5 0 3.5.1.8 0 1.3.2 1.6.3.4.2.7.3 1 .6.3.3.5.6.6 1 .2.3.2.8.3 1.6.1.9.1 1.2.1 3.5s0 2.5-.1 3.5c0 .8-.2 1.3-.3 1.6-.2.4-.3.7-.6 1s-.6.5-1 .6c-.3.2-.8.2-1.6.3-.9.1-1.2.1-3.5.1s-2.5 0-3.5-.1c-.8 0-1.3-.2-1.6-.3-.4-.2-.7-.3-1-.6-.3-.3-.5-.6-.6-1-.2-.3-.2-.8-.3-1.6-.1-.9-.1-1.2-.1-3.5s0-2.5.1-3.5c0-.8.2-1.3.3-1.6.2-.4.3-.7.6-1 .3-.3.6-.5 1-.6.4-.2.8-.3 1.6-.3.7-.1 1.1-.1 2.7-.1zM16.1 6c-.5 0-1 .5-1 1s.5 1 1 1 1-.5 1-1-.5-1-1-1zm-4.6 1.2c-2.4 0-4.4 1.9-4.4 4.4S9 16 11.5 16c2.4 0 4.4-1.9 4.4-4.4s-2-4.4-4.4-4.4zm0 1.5c1.5 0 2.8 1.3 2.8 2.8s-1.3 2.8-2.8 2.8-2.8-1.3-2.8-2.8c0-1.5 1.3-2.8 2.8-2.8z"/></svg><svg id="logo" viewBox="-40.7 623.5 86.2 56.7" width="86.2" height="56.7" x="190" y="77" xmlns="http://www.w3.org/2000/svg"><style>.ist0{fill:#2595cd}.ist1{fill:#c74c82}.ist2{enable-background:new}.ist3{fill:#694990}</style><path class="ist0" d="M9.2 655.5c-4.2-2.7-7.6-4.7-10.3-5.9-2.7-1.2-4.7-1.7-6-1.4-1.3.2-2.2.9-2.6 2-.4 1.1-.4 2.6 0 4.5s.9 3.8 1.7 6c-.7.1-1.3.3-2 .4-.7.2-1.3.3-2 .5-1.1-3.7-1.7-6.8-1.9-9.2-.2-2.4 0-4.3.5-5.6.5-1.3 1.3-2.2 2.4-2.6 1.1-.4 2.4-.4 3.9 0 1.5.3 3.2 1 5 2 1.8 1 3.7 2.1 5.7 3.4 2 1.3 3.9 2.8 5.9 4.3 2 1.6 3.9 3.1 5.8 4.7 1.8 1.5 3.6 3 5.2 4.5 1.6 1.4 3 2.7 4.2 3.8-6.1-4.9-11.3-8.7-15.5-11.4"/><path class="ist1" d="M-5.7 624.5c-.7 0-1.4.2-2 .5-.6.4-1.1.8-1.4 1.5-.4.6-.5 1.3-.5 2s.2 1.4.5 2c.4.6.8 1.1 1.4 1.4.6.4 1.3.5 2 .6.8 0 1.4-.2 2-.6.6-.4 1.1-.8 1.5-1.4.4-.6.5-1.3.5-2 0-.8-.2-1.4-.5-2-.4-.6-.8-1.1-1.5-1.5-.6-.3-1.3-.5-2-.5m17.1 7.3c-.8-.5-1.9-.7-3-.5-1.2.2-2.5.7-3.9 1.4-1.5.8-2.9 1.6-4.5 2.6-1.5 1-3 1.9-4.6 2.9-1.5 1-3 1.8-4.3 2.5-1.3.7-2.5 1.2-3.6 1.4-1.1.2-1.9 0-2.6-.5-.6-.6-1-1.7-1.1-3.2-.1-1.6.2-3.8.8-6.6.5.1 1 .1 1.5.2l1.5.3c-.5 1.8-.7 3.2-.6 4 .1.9.5 1.4 1.1 1.6.6.2 1.4.1 2.4-.3s2.1-.9 3.4-1.5c1.3-.6 2.6-1.3 4-2.1s2.8-1.5 4.1-2.2c1.4-.7 2.7-1.2 4-1.6 1.3-.4 2.4-.5 3.4-.4 1 .1 1.8.6 2.5 1.3.6.8 1 2 1.1 3.7-.2-1.5-.7-2.5-1.6-3"/><g class="ist2"><path class="ist3" d="M-34.1 674.6v-1.3h4.7v4.1c-.7.6-1.5 1-2.2 1.3-.8.3-1.6.4-2.4.4-1.1 0-2.1-.2-3-.7-.9-.5-1.6-1.1-2-2-.5-.9-.7-1.9-.7-3s.2-2.1.7-3c.5-.9 1.1-1.6 2-2.1.9-.5 1.8-.7 2.9-.7.8 0 1.5.1 2.2.4.7.3 1.2.6 1.5 1.1.4.5.7 1.1.8 1.8l-1.3.4c-.2-.6-.4-1-.6-1.3-.2-.3-.6-.6-1.1-.8-.5-.2-1-.3-1.5-.3-.7 0-1.3.1-1.7.3-.5.2-.9.5-1.2.8-.3.3-.5.7-.7 1.1-.3.7-.4 1.4-.4 2.2 0 1 .2 1.8.5 2.5s.8 1.2 1.5 1.5c.7.3 1.3.5 2.1.5.6 0 1.3-.1 1.9-.4.6-.2 1.1-.5 1.4-.8v-2.1h-3.4zm12.2 1.8l1.4.2c-.2.8-.6 1.5-1.2 1.9-.6.5-1.4.7-2.3.7-1.2 0-2.1-.4-2.8-1.1-.7-.7-1-1.7-1-3.1 0-1.4.3-2.4 1-3.2s1.6-1.1 2.7-1.1 2 .4 2.6 1.1c.7.7 1 1.8 1 3.1v.4h-6c.1.9.3 1.6.8 2 .5.5 1 .7 1.7.7.5 0 .9-.1 1.3-.4.4-.2.6-.6.8-1.2zm-4.5-2.2h4.5c-.1-.7-.2-1.2-.5-1.5-.4-.5-1-.8-1.7-.8-.6 0-1.2.2-1.6.6-.4.4-.6 1-.7 1.7zm10.7 3.6l.2 1.2c-.4.1-.7.1-1 .1-.5 0-.9-.1-1.2-.2-.3-.2-.5-.4-.6-.6-.1-.3-.2-.8-.2-1.6V672h-1v-1.1h1v-2l1.4-.8v2.8h1.4v1.1h-1.4v4.7c0 .4 0 .6.1.8 0 .1.1.2.2.3.1.1.3.1.5.1.1-.1.3-.1.6-.1zm1.6 1.2v-11.2h7.5v1.3h-6v3.5h5.2v1.3h-5.2v5.1h-1.5zm9.2-9.6v-1.6h1.4v1.6h-1.4zm0 9.6v-8.1h1.4v8.1h-1.4zm6.5-1.2l.2 1.2c-.4.1-.7.1-1 .1-.5 0-.9-.1-1.2-.2-.3-.2-.5-.4-.6-.6-.1-.3-.2-.8-.2-1.6V672h-1v-1.1h1v-2l1.4-.8v2.8h1.4v1.1H.2v4.7c0 .4 0 .6.1.8 0 .1.1.2.2.3.1.1.3.1.5.1.1-.1.3-.1.6-.1zM3 679v-11.2h2.2l2.6 7.9c.2.7.4 1.3.5 1.7.1-.4.3-1 .6-1.8l2.7-7.8h2V679h-1.4v-9.3L9 679H7.7l-3.2-9.5v9.5H3zm18.2-1c-.5.4-1 .7-1.5.9-.5.2-1 .3-1.5.3-.9 0-1.6-.2-2-.7-.5-.4-.7-1-.7-1.7 0-.4.1-.8.3-1.1.2-.3.4-.6.7-.8.3-.2.6-.3 1-.4.3-.1.7-.1 1.2-.2 1.1-.1 1.9-.3 2.4-.5v-.4c0-.6-.1-1-.4-1.2-.3-.3-.9-.5-1.6-.5-.6 0-1.1.1-1.4.3-.3.2-.5.6-.7 1.2l-1.3-.2c.1-.6.3-1 .6-1.4.3-.4.7-.6 1.2-.8.5-.2 1.1-.3 1.8-.3s1.3.1 1.7.2c.4.2.7.4 1 .6.2.2.3.6.4.9 0 .2.1.7.1 1.3v1.8c0 1.3 0 2.1.1 2.4.1.3.2.7.3 1h-1.4c-.2 0-.3-.3-.3-.7zm-.2-3.1c-.5.2-1.2.4-2.2.5-.6.1-1 .2-1.2.3-.2.1-.4.2-.5.4-.1.2-.2.4-.2.7 0 .4.1.7.4.9.3.2.7.4 1.2.4s1-.1 1.4-.3c.4-.2.7-.5.9-.9.1-.3.2-.8.2-1.4v-.6zm3.5 4.1v-8.1h1.2v1.1c.3-.4.6-.7 1-1 .4-.2.9-.4 1.4-.4.6 0 1.1.1 1.5.4.4.2.7.6.8 1 .6-.9 1.5-1.4 2.5-1.4.8 0 1.4.2 1.8.7.4.4.6 1.1.6 2.1v5.5h-1.4v-5.1c0-.5 0-.9-.1-1.2-.1-.2-.3-.4-.5-.6-.2-.1-.5-.2-.8-.2-.6 0-1 .2-1.4.6-.4.4-.6 1-.6 1.8v4.7h-1.4v-5.2c0-.6-.1-1.1-.3-1.4-.2-.3-.6-.5-1.1-.5-.4 0-.7.1-1.1.3s-.6.5-.7.9c-.1.4-.2 1-.2 1.7v4.2h-1.2zm18.3-1c-.5.4-1 .7-1.5.9-.5.2-1 .3-1.5.3-.9 0-1.6-.2-2-.7-.5-.4-.7-1-.7-1.7 0-.4.1-.8.3-1.1.2-.3.4-.6.7-.8.3-.2.6-.3 1-.4.3-.1.7-.1 1.2-.2 1.1-.1 1.9-.3 2.4-.5v-.4c0-.6-.1-1-.4-1.2-.3-.3-.9-.5-1.6-.5-.6 0-1.1.1-1.4.3-.3.2-.5.6-.7 1.2l-1.3-.2c.1-.6.3-1 .6-1.4.3-.4.7-.6 1.2-.8.5-.2 1.1-.3 1.8-.3s1.3.1 1.7.2c.4.2.7.4 1 .6.2.2.3.6.4.9 0 .2.1.7.1 1.3v1.8c0 1.3 0 2.1.1 2.4.1.3.2.7.3 1h-1.4c-.2 0-.3-.3-.3-.7zm-.1-3.1c-.5.2-1.2.4-2.2.5-.6.1-1 .2-1.2.3-.2.1-.4.2-.5.4-.1.2-.2.4-.2.7 0 .4.1.7.4.9.3.2.7.4 1.2.4s1-.1 1.4-.3c.4-.2.7-.5.9-.9.1-.3.2-.8.2-1.4v-.6z"/></g></svg><svg id="mail" viewBox="-128 13 47.3 36" width="47.3" height="36" x="53.78" y="139" xmlns="http://www.w3.org/2000/svg"><style>.jst0{fill:#fff}</style><title>mail</title><path class="jst0" d="M-127 14v5.7l22.7 11.3 22.7-11.3V14H-127zm0 11.3V48h45.3V25.3l-22.7 11.3-22.6-11.3z"/></svg><svg id="phone" viewBox="-1 -1 33.2 36" width="33.2" height="36" x="101.08" y="139" xmlns="http://www.w3.org/2000/svg"><style>.kst0{fill:#fff}</style><path class="kst0" d="M25 34c-4.8-.4-9.1-2-12.9-4.8C4.6 23.7.5 16.2 0 6.8-.1 4 1.8 1.2 4.5.2 5.9-.4 8.5.5 9 2c.7 2.2 1.2 4.5 1.6 6.7.1.4-.2 1-.5 1.4-.5.7-1.1 1.2-1.8 1.8-1 .9-1.1 1.2-.4 2.4 1.1 1.9 2.2 3.9 3.7 5.5 1.7 1.9 3.9 3.4 5.9 5.1.7.6 1.3.5 2-.1 2.8-2.5 2.8-2.4 6.4-1.3 1 .3 1.9.8 2.9 1.1 1.7.6 2.4 2 2.5 3.6.1.6-.1 1.4-.5 1.8-1.1 1.2-2.4 2.2-3.7 3.2-.6.6-1.4.6-2.1.8z"/></svg><svg id="trapeze" viewBox="-1 -1 322 77" width="322" height="77" xmlns="http://www.w3.org/2000/svg"><style>.lst0{display:none;fill:#c60c0c}.lst1{fill:url(#lXMLID_3_)}</style><path class="lst0" d="M0 0h320v75H0z"/><linearGradient id="lXMLID_3_" gradientUnits="userSpaceOnUse" x1="160" x2="160" y2="75" gradientTransform="matrix(1 0 0 -1 0 75)"><stop offset="0" stop-color="#f6f6f6" stop-opacity=".8"/><stop offset=".11" stop-color="#f6f6f6" stop-opacity=".82"/><stop offset="1" stop-color="#f6f6f6"/></linearGradient><path id="lXMLID_1_" class="lst1" d="M280 75H40L0 0h320z"/></svg><svg id="twitter" data-name="Layer 1" width="53.78" height="44.06" viewBox="-1 -1 53.78 44.06" y="139" xmlns="http://www.w3.org/2000/svg"><defs><style>.mcls-1{fill:#fff}</style></defs><title>twitter</title><path class="mcls-1" d="M51.78 5a22.23 22.23 0 0 1-5.32 5.52v1.38a30.15 30.15 0 0 1-1.25 8.53 30.81 30.81 0 0 1-3.76 8.13 32.1 32.1 0 0 1-6.06 6.92 27 27 0 0 1-8.48 4.8 31 31 0 0 1-10.62 1.8A29.47 29.47 0 0 1 0 37.29a22.71 22.71 0 0 0 2.56.13 20.78 20.78 0 0 0 13.17-4.53 10.63 10.63 0 0 1-9.92-7.36 13.45 13.45 0 0 0 2 .16 11 11 0 0 0 2.79-.36 10.44 10.44 0 0 1-6.09-3.67 10.25 10.25 0 0 1-2.41-6.75v-.13a10.52 10.52 0 0 0 4.8 1.34 10.6 10.6 0 0 1-3.45-3.78 10.34 10.34 0 0 1-1.28-5.07 10.4 10.4 0 0 1 1.45-5.33 30.08 30.08 0 0 0 9.71 7.83A29.57 29.57 0 0 0 25.53 13a11.79 11.79 0 0 1-.26-2.43 10.23 10.23 0 0 1 3-7.48 10.64 10.64 0 0 1 15 0l.21.22A20.81 20.81 0 0 0 50.33.8a10.3 10.3 0 0 1-4.67 5.85A21.14 21.14 0 0 0 51.78 5z"/></svg><svg id="youtube" data-name="Layer 1" width="36.75" height="44" viewBox="-1 -1 36.75 44" x="23.23" y="183.06" xmlns="http://www.w3.org/2000/svg"><defs><style>.ncls-1{fill:#fff}</style></defs><title>youtube</title><path class="ncls-1" d="M22.13 29.15v5q0 1.57-.91 1.57a1.5 1.5 0 0 1-1.06-.52v-7.11a1.5 1.5 0 0 1 1.06-.54q.91 0 .91 1.6zm7.92 0v1.08h-2.1v-1.06q0-1.59 1.06-1.59t1 1.59zM7.42 24h2.5v-2.14h-7.3v2.2h2.46V37.4h2.34V24zm6.75 13.4h2.09V25.82h-2.09v8.86a1.86 1.86 0 0 1-1.31 1 .48.48 0 0 1-.49-.47 6.52 6.52 0 0 1 0-.82v-8.57h-2.14V35a5.79 5.79 0 0 0 .19 1.71 1.26 1.26 0 0 0 1.36.87 3.43 3.43 0 0 0 2.39-1.43v1.25zm10.05-3.47v-4.6A8.33 8.33 0 0 0 24 27a1.63 1.63 0 0 0-1.67-1.31A2.82 2.82 0 0 0 20.16 27v-5.1h-2.08v15.5h2.09v-1.13a2.91 2.91 0 0 0 2.18 1.31A1.62 1.62 0 0 0 24 36.27a8.61 8.61 0 0 0 .22-2.35zm7.92-.24v-.3H30a11.6 11.6 0 0 1 0 1.43.9.9 0 0 1-.94.85q-1.08 0-1.08-1.61V32h4.19v-2.41a4.65 4.65 0 0 0-.66-2.72 3.2 3.2 0 0 0-5 0 4.52 4.52 0 0 0-.66 2.72v4.05a4.4 4.4 0 0 0 .66 2.72 3 3 0 0 0 2.49 1.2 2.9 2.9 0 0 0 3-2.51 10.31 10.31 0 0 0 .09-1.36zM17.89 12.3V7.38q0-1.61-1-1.61t-1 1.61v4.92q0 1.64 1 1.64t1-1.64zm16.85 17.6a40.6 40.6 0 0 1-.61 8.2 4.45 4.45 0 0 1-1.36 2.32 4.1 4.1 0 0 1-2.39 1.08 125.31 125.31 0 0 1-13 .49 125.31 125.31 0 0 1-13-.49A4.15 4.15 0 0 1 2 40.42 4.28 4.28 0 0 1 .63 38.1 39.76 39.76 0 0 1 0 29.9a40.6 40.6 0 0 1 .61-8.2A4.45 4.45 0 0 1 2 19.37a4.25 4.25 0 0 1 2.41-1.1q4.29-.47 13-.47t13 .47a4.4 4.4 0 0 1 3.75 3.42 39.76 39.76 0 0 1 .58 8.21zM11.35 0h2.39l-2.83 9.35v6.35H8.57V9.35a39.68 39.68 0 0 0-1.43-5Q6.27 2 5.61 0H8.1l1.67 6.16zM20 7.8v4.1a4.59 4.59 0 0 1-.66 2.76 2.88 2.88 0 0 1-2.49 1.19 2.9 2.9 0 0 1-2.46-1.19 4.68 4.68 0 0 1-.66-2.76V7.8a4.59 4.59 0 0 1 .66-2.74 2.9 2.9 0 0 1 2.46-1.19 2.88 2.88 0 0 1 2.49 1.19A4.59 4.59 0 0 1 20 7.8zM27.87 4v11.7h-2.13v-1.27a3.37 3.37 0 0 1-2.41 1.45A1.31 1.31 0 0 1 22 15a6 6 0 0 1-.19-1.76V4h2.13v8.6a6.14 6.14 0 0 0 0 .82.49.49 0 0 0 .47.52 1.87 1.87 0 0 0 1.31-1V4h2.16z"/></svg></svg>