<?xml version="1.0" encoding="utf-8"?><svg width="270" height="186" viewBox="0 0 270 186" xmlns="http://www.w3.org/2000/svg" xmlns:xlink="http://www.w3.org/1999/xlink"><svg id="facebook" viewBox="-1 -1 190 62" width="190" height="62" xmlns="http://www.w3.org/2000/svg"><style>.ast0{fill:#26559a}.ast1{fill:#fff}</style><path class="ast0" d="M0 0h188v60H0z"/><path class="ast1" d="M99 29.6c-1.3 0-2.2.4-3.1.8v9.5c.9.1 1.4.1 2.2.1 3 0 3.4-1.4 3.4-3.3v-4.6c0-1.4-.4-2.5-2.5-2.5m-20.1-.5c-2.1 0-2.6 1.2-2.6 2.6v.8h5.2v-.8c-.1-1.5-.5-2.6-2.6-2.6m-39 9.9c0 1.1.5 1.7 1.7 1.7 1.3 0 2-.4 2.9-.8v-2.3h-2.8c-1.2 0-1.8.2-1.8 1.4m78.6-9.4c-2.1 0-2.8 1.1-2.8 2.6v5.2c0 1.4.7 2.6 2.8 2.6 2.1 0 2.8-1.2 2.8-2.6v-5.2c0-1.5-.7-2.6-2.8-2.6M29.6 44.8h-6.2V29.9h-3.1v-5.2h3.1v-3.1c0-4.2 1.7-6.7 6.7-6.7h4.1v5.2h-2.6c-1.9 0-2.1.7-2.1 2.1v2.6h4.7l-.5 5.2h-4.1v14.8zm21.1 0h-5.2l-.2-1.3C43 44.8 40.9 45 39.5 45c-3.8 0-5.8-2.5-5.8-6 0-4.1 2.3-5.6 6.5-5.6h4.3v-.9c0-2.1-.2-2.7-3.5-2.7h-5.3l.5-5.2H42c7.1 0 8.6 2.2 8.6 7.9l.1 12.3zm17.6-14.6c-3.2-.5-4.1-.7-5.7-.7-2.8 0-3.6.6-3.6 3V37c0 2.4.8 3 3.6 3 1.5 0 2.5-.1 5.7-.7v5c-2.8.6-4.6.8-6.2.8-6.6 0-9.3-3.5-9.3-8.5V33c0-5 2.6-8.5 9.3-8.5 1.5 0 3.4.2 6.2.8v4.9zm19.3 6.4H76.3v.4c0 2.4.8 3 3.6 3 2.5 0 4-.1 7.2-.7v5c-3.1.6-4.7.8-7.7.8-6.6 0-9.3-3.5-9.3-8.5v-4.1c0-4.4 2-8 8.8-8s8.8 3.6 8.8 8v4.1h-.1zm20.1 0c0 4.9-1.4 8.4-9.8 8.4-3 0-4.8-.3-8.2-.8V16.5l6.2-1v9.7c1.3-.5 3.1-.7 4.6-.7 6.2 0 7.2 2.8 7.2 7.2v4.9zm19.8.2c0 4.2-1.7 8.3-9 8.3s-9-4.1-9-8.3v-4.1c0-4.2 1.8-8.3 9-8.3 7.3 0 9 4.1 9 8.3v4.1zm19.8 0c0 4.2-1.7 8.3-9 8.3s-9-4.1-9-8.3v-4.1c0-4.2 1.8-8.3 9-8.3 7.3 0 9 4.1 9 8.3v4.1zm20.3 8h-6.7l-5.7-9.4v9.4H149V16.5l6.2-1v18.2l5.7-9h6.7l-6.2 9.8 6.2 10.3zm-29.3-15.2c-2.1 0-2.8 1.1-2.8 2.6v5.2c0 1.4.7 2.6 2.8 2.6s2.8-1.2 2.8-2.6v-5.2c0-1.5-.7-2.6-2.8-2.6"/></svg><svg id="facebook-mini" viewBox="-1 -1 25 25" width="25" height="25" x="215" y="52.5" xmlns="http://www.w3.org/2000/svg"><style>.bst0{fill:#3b5998}.bst1{fill:#fff}</style><path class="bst0" d="M5.5 0h12c3 0 5.5 2.5 5.5 5.5v12c0 3-2.5 5.5-5.5 5.5h-12c-3 0-5.5-2.5-5.5-5.5v-12C0 2.5 2.5 0 5.5 0z"/><path class="bst1" d="M12.3 23v-7.9H9.6V12h2.7V9.8c0-2.6 1.7-4 4.1-4 1.2 0 2.2.1 2.4.1v2.7h-1.7c-1.3 0-1.6.6-1.6 1.5v2h3.1l-.4 3.1h-2.7V23h-3.2z"/></svg><svg id="googleplus" viewBox="-1 -1 190 62" width="190" height="62" y="62" xmlns="http://www.w3.org/2000/svg"><style>.cst0{fill:url(#cSVGID_1_)}.cst1{fill:#fff;stroke:#fff;stroke-miterlimit:10}</style><linearGradient id="cSVGID_1_" gradientUnits="userSpaceOnUse" x1="27.772" y1="-10.373" x2="185.018" y2="90.233" gradientTransform="matrix(1 0 0 -1 0 62)"><stop offset="0" stop-color="#a9291c"/><stop offset="1" stop-color="#d84937"/></linearGradient><path class="cst0" d="M0 0h188v60H0z"/><path class="cst1" d="M117.5 18.6h-8v-8h-2.3v8h-8v2.3h8v8h2.3v-8h8zM71.3 39.5c3.8-5.3 11.1-5.8 14.7-5.3-1-1.1-3.5-3.1-1.7-6.4-8.1 1-10.7-4-11.1-7.9-.7-6.6 5-11.3 11-11.4h13.1c-.4.4-2.6 1.9-3.2 1.9h-3.4c8.8 8.3.3 15.2-1.5 16.6-3.5 4.3 7.5 6.4 6.9 13.6 0 6.6-5.5 10.9-14.2 10.9-9.5 0-14.1-6-10.6-12zm19.3 8c3.4-2.6 2.6-6.5 0-9.1-1.6-1.6-3.5-3-7.6-2.6-4.8.6-8.3 2.9-8.1 6.4 1 7.7 12 7.9 15.7 5.3zm-2.3-22.4c4-3.3.3-14.6-5.1-14.6-3.4 0-5.2 2.5-5.4 6-.3 6.5 5.7 12.5 10.5 8.6z"/></svg><svg id="googleplus-mini" viewBox="-1 -1 25 24.2" width="25" height="24.2" x="240" y="52.5" xmlns="http://www.w3.org/2000/svg"><style>.dst0{fill:url(#dSVGID_1_)}.dst1{fill:#fff}</style><linearGradient id="dSVGID_1_" gradientUnits="userSpaceOnUse" x1="1.922" y1="17.227" x2="24.663" y2="2.678"><stop offset="0" stop-color="#a9291c"/><stop offset="1" stop-color="#d84937"/></linearGradient><path class="dst0" d="M4.9 22.2H18c2.7 0 4.9-2.2 4.9-4.9V4.9C23 2.2 20.8 0 18.1 0H4.9C2.2 0 0 2.2 0 4.9v12.3c0 2.8 2.2 5 4.9 5z"/><path class="dst1" d="M3 14.9c1.5-2.1 4.5-2.3 5.9-2.1-.4-.4-1.4-1.2-.7-2.6C5 10.6 3.9 8.6 3.8 7c-.3-2.7 2-4.6 4.4-4.6h5.3c-.2.2-1.1.7-1.3.7h-1.4c3.5 3.3.1 6.1-.6 6.7-1.4 1.7 3 2.6 2.8 5.5 0 2.6-2.2 4.4-5.7 4.4-3.9 0-5.7-2.4-4.3-4.8zm7.8 3.2c1.4-1.1 1.1-2.6 0-3.7-.6-.6-1.4-1.2-3.1-1-1.9.2-3.3 1.1-3.3 2.6.4 3.1 4.9 3.2 6.4 2.1zm-1-9c1.6-1.3.1-5.9-2.1-5.9-1.4 0-2.1 1-2.2 2.4 0 2.7 2.4 5.1 4.3 3.5zM20.5 9.8h-2.6V7.2h-.8v2.6h-2.6v.8h2.6v2.6h.8v-2.6h2.6z"/></svg><svg id="instagram" viewBox="-1 -1 190 62" width="190" height="62" y="124" xmlns="http://www.w3.org/2000/svg"><style>.est0{fill:#fff}.est1{fill:none}</style><path class="est0" d="M188 60H0V0h188v60z"/><path class="est1" d="M102.1 21.4h-.1c-1.8 0-2.9 2.1-3.3 4.5-.4 1.8-.5 4.7.2 6.9.5 1.6 1.3 2.2 2.1 2.2.9 0 1.8-.8 2.4-2 .5-1.1 1.1-3 1.1-4.9.2-4.7-.7-6.7-2.4-6.7zM132.8 21.4h-.2c-1.7 0-2.8 1.8-3.1 4.2-.4 2.5-.4 5.5.2 7.2.5 1.6 1.3 2.2 2.1 2.2.9 0 1.8-.8 2.4-2 .6-1.1 1.1-2.8 1.1-4.9.3-4.3-.6-6.6-2.5-6.7zM99.6 46.5c-.3 1.9.7 2.8 1.9 2.8.5 0 1.1-.2 1.6-.5 1.1-.9 1.8-4 1.8-7.5v-2.2c-2.9 2.8-4.8 5.1-5.3 7.4zM84.3 21.4h-.2c-1.6 0-2.7 1.8-3.1 4.2-.3 1.7-.5 4.8.2 7.2.5 1.6 1.3 2.2 2.1 2.2.9 0 1.8-.8 2.4-1.9.6-1.2 1.1-3 1.1-5 .3-4.3-.6-6.6-2.5-6.7z"/><path d="M28.3 9.5c-.3 0-.5 0-.7.1-2.7 1.1-6 4.4-7.1 9.1-.6 2.4.2 4.1 1 5 1 1.3 2.3 1.8 2.8 1.8 0-.1 0-.2-.3-.6-.4-.6-.9-1.5-1.1-3.2-.5-4.1 1.6-8.5 3.8-10.4.2-.2.4-.2.5-.2.2 0 .6.1.7.8v7.9c0 4.7-.1 10.3-.1 12 0 4.3-.2 5.6-.5 6.7-.1.5-.2 1-.4 1.3-.1.2-.1.4-.2.6.6-.1 1.7-.8 2.5-1.8 1-1.5 1.6-3.3 1.7-5.8.1-2.7.1-7.1.1-9.4V10.7c0-.5-1.4-1.2-2.7-1.2zM167.8 32.2c0-1-.2-1.1-.2-1.1s-.2.2-.3.8c-.6 2.4-1.1 3.6-2.4 3.6-1.3 0-2.2-1.7-2.3-4.4-.2-2.3-.2-6.2.1-9.8 0-.5 0-1.1-1.9-1.8-.4-.2-.8-.3-1.2-.3-.3 0-.7.1-1 .8-1.6 3.8-2.5 7.4-2.7 9.3 0 .3-.2.5-.5.5s-.6-.2-.6-.6c0-.1 0-.4-.1-.6-.1-1.2-.3-3.3-.3-7 0-.8-.1-1.3-.9-1.8-.4-.2-1.3-.5-1.9-.5-.3 0-.5.1-.6.2-.6.7-1.3 2.8-1.8 4.4-.5 1.7-1 2.9-1 2.9l-1 2.5V20.2c0-.3-.1-.4-.3-.5-.7-.2-1.8-.4-2.2-.4-.2 0-.3 0-.3.4v.3c-.1 5.3-.1 8.4-.1 10.1v.6c-.4 1.9-1.5 5-3.2 5-2 0-2.3-2.3-2.3-6.7v-3.7-2.6c0-.9 0-1.7.1-2.1v-.3c0-.1-.2-.3-1.3-.6h-.2c-.4-.1-.7-.1-1-.1-.2 0-.4.1-.4.3v2.5l-.9-1.6c-.5-.9-1.5-1.6-2.1-1.7-.4-.1-.9-.2-1.3-.2-1.4 0-2.6.7-3.6 2-1.2 1.8-1.9 3.6-2.1 6-.2 2.2-.1 4.1.3 5.5v.2c-.6 2.6-1.7 3.1-2.6 3.1-.5 0-.9-.2-1.3-.6-.9-.9-1.4-3-1.3-5.7.1-2.1.4-3.8.9-5.9l.2-.8c.2-.9 0-1.3-.3-1.7-.1-.1-.5-.4-1.3-.4-.3 0-.6 0-.9.1-.9.2-2.2.4-3.5.6l-.8.1.3-.8s.1-.2.1-.6c.1-.5 0-.9-.2-1.2-.3-.3-.8-.4-1.1-.4-.5 0-1.1.2-1.4.5-.5.5-.8 1-.9 1.9-.2 1.4.9 2.1.9 2.1l.3.2-.1.3c-.4 2-1.5 4.8-2.8 7l-.3.5c-.5.8-.9 1.5-1.4 2.3l-.9 1.3v-2.6c0-2.9 0-5.4.1-7.1v-2c0-.9 0-1.6.1-2v-.4c0-.1 0-.3-.5-.4-.5-.2-1.1-.3-1.6-.3h-.1c-.3 0-.4.1-.5.2v2.6l-.9-1.6c-.5-.9-1.5-1.6-2.1-1.7-.4-.1-.9-.2-1.3-.2-1.4 0-2.6.7-3.6 2-1.1 1.6-1.9 3.8-2.1 5.9-.2 2.2-.2 3.8.1 5.1v.2c-.3 1.7-1.3 3.5-2.6 3.5-1.8 0-2.4-1.7-2.4-6.7v-3.7-2.6c0-.9 0-1.7.1-2.1v-.3c0-.1-.2-.3-1.3-.6-.5-.1-1-.2-1.3-.2-.1 0-.3.2-.3.3v2.5l-.9-1.6c-.5-.9-1.5-1.6-2.1-1.7-.4-.1-.9-.2-1.3-.2-1.4 0-2.6.7-3.6 2-1 1.4-1.7 2.8-2.1 5.9v.2c-.1.9-.2 1.7-.2 2.4-.4 2.5-2.2 5.5-4 5.5-1.3 0-2.1-2.1-2.1-5.5 0-4.6.3-11 .4-11.7l.1-.4h2.5c.9 0 1.6 0 2.8-.1.2-.2.5-1.2.4-1.5-.4-.1-2-.2-2.7-.2-.9-.1-2.8-.3-2.8-.3h-.5v-.5c.1-1.5.2-4.4.2-4.7 0 0-.2-.1-.3-.2l-.1-.1c-.6-.2-1.1-.4-1.9-.6H69c-.3 0-.4 0-.4.5-.2 1.3-.2 4.9-.2 5v.5h-.5c-.4 0-1.2 0-2-.1-.7 0-1.5-.1-1.9-.1-.1.1-.4.6-.5 1.2-.1.4 0 .7 0 .8H68.2v.5c0 .1-.1 6.6-.1 8.6V27c-.7 3.7-3.2 5.8-3.3 5.8l-1.1.9.3-1.4c.4-2-.3-3.6-2.3-5.1-.7-.5-2.1-1.6-3.7-2.7l-.5-.3.4-.4s.8-.9 1.6-2.5c.3-.8.4-1.5.2-1.9-.1-.2-.3-.4-.6-.5-.2-.1-.5-.1-.7-.1-1.7 0-3 1.4-3.4 2.7-.4 1.2-.2 2.1.5 3.1.1.1.1.2.2.2l.3.3-.2.3c-.2.3-.4.8-.6 1.2-.4.7-.8 1.6-1.2 2.3l-.4.7c-1.7 3-2.7 4.8-3.9 4.8-1.3 0-1.3-2.2-1.3-5 0-1.1.1-2.6.1-4.2 0-1.1.1-2.3.1-3.4 0-.7-.2-1.1-1-1.6-.1 0-.2-.1-.3-.2-.4-.2-1.2-.7-1.5-.7-2.1 0-4 2.3-5.6 7-.4.9-1 2.5-1 2.6l-1 2.7v-2.9l.1-8.6V20h-.1c-.4-.3-1.4-.6-2.3-.6-.2 0-.2 0-.2.2l-.1 13.6c0 1 0 2.2.1 2.6.1.5.2.9.4 1 .1.2.3.3.5.3.1 0 .6.1 1 .1.7 0 .8-.1.8-.1v-.2c.1-.8.2-2 1.1-5.4 1.8-6.3 4.1-9 4.8-9.6.2-.2.4-.3.6-.3.3 0 .6.2.6.7 0 .7-.1 2-.1 3.6 0 1.1-.1 2.3-.1 3.4-.2 4 .2 6.5 1.1 7.4.3.3.7.5 1.2.5.7 0 2.5-.5 5.1-4.7 1.3-2.2 2.6-4.4 3.5-5.9l.3-.6.5.5c.3.3.6.6 1 .9.4.3.8.7 1.1 1.1 1.7 1.6 2.4 3.3 2 5-.2.9-1 2-2.3 2-.5 0-1.1-.2-1.6-.5-.5-.4-.8-.6-1.4-1-.1 0-.2-.1-.3-.1h-.2c-.4.3-.8.9-.9 1.6-.1.3.2.6 1.1 1 .6.3 2.1.6 3.1.6h.2c3.8 0 6.5-2.1 8.4-6.7l.8-1.9.2 2c.2 3 1.2 6.5 4.4 6.5 1.7 0 3.4-2.3 4.2-4.6l.5-1.5.4 1.5c.3 1 .6 1.8 1 2.4.8 1.3 2.1 2.1 3.5 2.1 1.6 0 3.2-.9 4.3-2.4.6-.8.7-1.1.7-1.1l.7-2.1.3 2.2c.3 2.5 2.2 3.3 3.4 3.3 1.5 0 2.7-.9 3.5-2.7l.5-1.1.4 1.2c.1.2.2.4.3.5.8 1.3 2.1 2.1 3.5 2.1 1.6 0 3.2-.9 4.2-2.4.1-.2.2-.4.3-.4l.8-.8.1 1.1.1 1.8v.2l-.2.2-1.9 1.8c-3.3 3-5.7 5.3-5.8 7.7-.3 3.7 3.5 4.2 4.2 4.3h.4c1.7 0 3.4-1 4.4-2.6 1-1.4 1.6-4.5 1.6-7.7v-2V35.1l.1-.1c1.2-1.4 2.5-3.2 3.7-5 1.4-2.4 2.7-5.2 3.4-7.3l.1-.4h.4s1.2 0 2.5-.1c.3 0 .6 0 .8.3.1.2.2.4.1.7-.3 1-1.5 6.4-.3 10.1.9 2.6 3 3.3 4 3.3 1.3 0 2.6-1 3.3-2.5l.4-.9.5.9.1.2.1.3c1.1 1.7 2.5 2.1 3.5 2.1 1.6 0 3.2-.9 4.3-2.4.5-.7.7-1.2.7-1.2l.7-1.4.2 1.6c.4 2.8 2.6 3.4 3.5 3.4 1 0 2.2-.3 3.1-2.7l1-2.5v2.6c0 1 .1 1.7.1 2 0 0 .2.1.3.2.1 0 .1.1.2.1.5.2 1 .2 1.5.2s.9-.1 1.1-.1c0 0 .1 0 .2-.5v-1.4c0-1.7.1-3.8.5-5.5.8-3.3 1.6-4.8 2-5.7.1-.1.1-.2.1-.3.2-.3.4-.5.7-.5.1 0 .6 0 .6.8 0 .9.1 3.4.4 6.6.3 2.6.6 3.8.8 4.1.6 1.1 1.3 1.2 1.9 1.2.4 0 .7-.1.9-.2 0 0 .1-.1 0-.2 0-1.2.1-3.5.9-6.7.7-2.5 1.6-4.8 1.9-5.4.1-.4.4-.4.6-.4.4 0 .6.3.6.6s-.4 6.5.4 9.7c.9 3.8 3.4 4 3.9 4 2.8.3 3.7-2.3 4-4.5zm-80.5-4.1c-.1 2-.5 3.8-1.2 5.2-.7 1.4-1.8 2.2-2.8 2.2-.7 0-1.9-.3-2.6-2.5-.8-2.8-.4-6.4-.2-7.5.5-3 1.8-4.7 3.6-4.7h.3c1.5.2 3.2 1.6 2.9 7.3zm17.7.1c-.1 2.1-.7 4.1-1.2 5.1-.7 1.4-1.8 2.2-2.9 2.2-.7 0-1.9-.3-2.6-2.6-.7-2.3-.6-5.3-.2-7.1.6-3.1 2-4.9 3.8-4.9h.1c.6 0 1.2.2 1.6.7 1.1 1 1.5 3.1 1.4 6.6zm.4 10.9v2.2c0 1.5-.1 6.5-2 7.9-.6.4-1.2.7-1.9.7-.8 0-1.4-.3-1.9-.8-.4-.4-.8-1.3-.6-2.6.5-2.5 2.5-4.8 5.4-7.7l.8-.8v1.1zm30.4-10.9c-.1 2.1-.5 3.8-1.2 5.1-.7 1.4-1.7 2.2-2.8 2.2-.7 0-1.9-.3-2.6-2.6-.6-2-.5-5.2-.2-7.4.4-2.9 1.7-4.7 3.6-4.7h.3c1.5.2 3.3 1.6 2.9 7.4z"/></svg><svg id="instagram-mini" viewBox="-1 -1 25 25.1" width="25" height="25.1" x="190" y="52.5" xmlns="http://www.w3.org/2000/svg"><style>.fst0{fill:url(#fSVGID_1_)}.fst1{fill:url(#fSVGID_2_)}.fst2{fill:#fff}</style><radialGradient id="fSVGID_1_" cx="-288.385" cy="731.137" r="11.536" gradientTransform="matrix(0 -1.982 1.8439 0 -1342.013 -546.73)" gradientUnits="userSpaceOnUse"><stop offset="0" stop-color="#fd5"/><stop offset=".1" stop-color="#fd5"/><stop offset=".5" stop-color="#ff543e"/><stop offset="1" stop-color="#c837ab"/></radialGradient><path class="fst0" d="M11.5 0H5.1c-1 .1-1.6.2-2.3.5-.5.3-.9.6-1.3 1C.7 2.3.3 3.2.2 4.3 0 4.9 0 5 0 7.8v10.3c.1 1 .2 1.5.5 2.2.6 1.2 1.8 2.2 3.2 2.5.5.2 1 .2 1.7.3h12.2c.8 0 1.2-.1 1.8-.2 1.4-.4 2.5-1.3 3.2-2.6.3-.6.5-1.3.5-2.2v-6.5-6.5c-.1-.9-.2-1.5-.5-2.2-.2-.5-.5-.9-1-1.4C20.8.8 19.9.3 18.8.2c-.6-.2-.7-.2-3.5-.2h-3.8z"/><radialGradient id="fSVGID_2_" cx="305.402" cy="399.586" r="11.536" gradientTransform="matrix(.1739 .8687 -3.5818 .7172 1374.254 -550.224)" gradientUnits="userSpaceOnUse"><stop offset="0" stop-color="#3771c8"/><stop offset=".128" stop-color="#3771c8"/><stop offset="1" stop-color="#60f" stop-opacity="0"/></radialGradient><path class="fst1" d="M11.5 0H5.1c-1 .1-1.6.2-2.3.5-.5.3-.9.6-1.3 1C.7 2.3.3 3.2.2 4.3 0 4.9 0 5 0 7.8v10.3c.1 1 .2 1.5.5 2.2.6 1.2 1.8 2.2 3.2 2.5.5.2 1 .2 1.7.3h12.2c.8 0 1.2-.1 1.8-.2 1.4-.4 2.5-1.3 3.2-2.6.3-.6.5-1.3.5-2.2v-6.5-6.5c-.1-.9-.2-1.5-.5-2.2-.2-.5-.5-.9-1-1.4C20.8.8 19.9.3 18.8.2c-.6-.2-.7-.2-3.5-.2h-3.8z"/><path class="fst2" d="M11.5 3C9.2 3 8.9 3 8 3.1c-.8 0-1.5.2-2.1.4s-1 .5-1.5 1c-.4.4-.7.9-.9 1.5-.3.5-.4 1.2-.4 2-.1.9-.1 1.2-.1 3.5s0 2.6.1 3.5c.1.9.2 1.5.4 2.1.2.5.5 1 1 1.5s.9.8 1.5 1c.5.2 1.2.4 2.1.4.9.1 1.2.1 3.5.1s2.6 0 3.5-.1c.9-.1 1.5-.2 2.1-.4.5-.2 1-.5 1.5-1s.8-.9 1-1.5c.2-.5.4-1.2.4-2.1.1-.9.1-1.2.1-3.5s0-2.6-.1-3.5-.1-1.5-.3-2.1-.5-1-1-1.5-.9-.8-1.5-1c-.7-.2-1.3-.3-2.2-.3-.9-.1-1.3-.1-3.6-.1zm-.7 1.5h.8c2.3 0 2.5 0 3.5.1.8 0 1.3.2 1.6.3.4.2.7.3 1 .6.3.3.5.6.6 1 .2.3.2.8.3 1.6.1.9.1 1.2.1 3.5s0 2.5-.1 3.5c0 .8-.2 1.3-.3 1.6-.2.4-.3.7-.6 1s-.6.5-1 .6c-.3.2-.8.2-1.6.3-.9.1-1.2.1-3.5.1s-2.5 0-3.5-.1c-.8 0-1.3-.2-1.6-.3-.4-.2-.7-.3-1-.6-.3-.3-.5-.6-.6-1-.2-.3-.2-.8-.3-1.6-.1-.9-.1-1.2-.1-3.5s0-2.5.1-3.5c0-.8.2-1.3.3-1.6.2-.4.3-.7.6-1 .3-.3.6-.5 1-.6.4-.2.8-.3 1.6-.3.7-.1 1.1-.1 2.7-.1zM16.1 6c-.5 0-1 .5-1 1s.5 1 1 1 1-.5 1-1-.5-1-1-1zm-4.6 1.2c-2.4 0-4.4 1.9-4.4 4.4S9 16 11.5 16c2.4 0 4.4-1.9 4.4-4.4s-2-4.4-4.4-4.4zm0 1.5c1.5 0 2.8 1.3 2.8 2.8s-1.3 2.8-2.8 2.8-2.8-1.3-2.8-2.8c0-1.5 1.3-2.8 2.8-2.8z"/></svg><svg id="logo" viewBox="143.2 392.4 79.7 52.5" width="79.7" height="52.5" x="190" xmlns="http://www.w3.org/2000/svg"><style>.gst0{fill:#2595cd}.gst1{fill:#c74e83}.gst2{enable-background:new}.gst3{fill:#79cfce}</style><g id="gsurface2_1_"><path class="gst0" d="M189.4 422c-3.9-2.5-7.1-4.3-9.5-5.4-2.5-1.1-4.3-1.5-5.6-1.3s-2 .8-2.4 1.8c-.3 1-.3 2.4 0 4.1.3 1.7.9 3.6 1.6 5.5-.6.1-1.2.2-1.8.4-.6.2-1.2.3-1.9.4-1-3.5-1.6-6.3-1.7-8.5-.2-2.2 0-3.9.4-5.2.5-1.2 1.2-2 2.2-2.3 1-.3 2.2-.3 3.6 0s2.9.9 4.6 1.8c1.7.9 3.4 1.9 5.2 3.2 1.8 1.2 3.6 2.6 5.5 4 1.8 1.4 3.6 2.9 5.3 4.3 1.7 1.4 3.3 2.8 4.8 4.2 1.5 1.3 2.8 2.5 3.8 3.5-5.5-4.5-10.2-7.9-14.1-10.5"/><path class="gst1" d="M175.6 393.4c-.7 0-1.3.2-1.9.5-.6.3-1 .8-1.3 1.3-.3.6-.5 1.2-.5 1.9s.2 1.3.5 1.9c.3.6.8 1 1.3 1.3.6.3 1.2.5 1.9.5s1.3-.2 1.9-.5c.6-.3 1-.8 1.3-1.3.3-.6.5-1.2.5-1.9s-.2-1.3-.5-1.9c-.3-.6-.8-1-1.3-1.3-.6-.3-1.2-.5-1.9-.5m15.8 6.8c-.8-.5-1.7-.6-2.8-.4-1.1.2-2.3.6-3.6 1.3-1.3.7-2.7 1.5-4.1 2.4l-4.2 2.7c-1.4.9-2.7 1.7-4 2.3-1.2.7-2.3 1.1-3.3 1.3-1 .2-1.8 0-2.4-.5-.6-.5-.9-1.5-1-3-.1-1.4.2-3.5.7-6.1.5.1.9.1 1.4.2.5.1 1 .2 1.4.3-.5 1.7-.7 2.9-.5 3.7.1.8.4 1.3 1 1.5.6.2 1.3.1 2.2-.2.9-.3 2-.8 3.1-1.4 1.2-.6 2.4-1.2 3.7-2 1.3-.7 2.6-1.4 3.8-2 1.3-.6 2.5-1.1 3.7-1.5 1.2-.4 2.2-.5 3.1-.4.9.1 1.7.5 2.3 1.2.6.7.9 1.9 1 3.5-.2-1.5-.7-2.5-1.5-2.9"/></g><g class="gst2"><path class="gst3" d="M149.4 439.7v-1.2h4.4v3.8c-.7.5-1.4.9-2.1 1.2-.7.3-1.4.4-2.2.4-1 0-1.9-.2-2.8-.6s-1.4-1.1-1.9-1.9c-.4-.8-.6-1.7-.6-2.7 0-1 .2-1.9.6-2.8.4-.9 1-1.5 1.8-1.9.8-.4 1.7-.6 2.7-.6.7 0 1.4.1 2 .4.6.2 1.1.6 1.4 1 .3.4.6 1 .8 1.7l-1.2.3c-.2-.5-.3-.9-.6-1.2-.2-.3-.6-.5-1-.7-.4-.2-.9-.3-1.4-.3-.6 0-1.2.1-1.6.3-.5.2-.8.4-1.1.7s-.5.6-.6 1c-.3.6-.4 1.3-.4 2.1 0 .9.2 1.7.5 2.3.3.6.8 1.1 1.4 1.4.6.3 1.2.4 1.9.4.6 0 1.2-.1 1.7-.3.6-.2 1-.5 1.3-.7v-1.9h-3zM160.7 441.3l1.3.2c-.2.8-.6 1.4-1.1 1.8s-1.3.6-2.1.6c-1.1 0-2-.3-2.6-1-.6-.7-1-1.6-1-2.8 0-1.3.3-2.2 1-2.9s1.5-1 2.5-1 1.8.3 2.4 1c.6.7.9 1.6.9 2.9v.3h-5.6c0 .8.3 1.4.7 1.9.4.4.9.7 1.6.7.5 0 .9-.1 1.2-.4.3-.4.6-.7.8-1.3zm-4.1-2h4.2c-.1-.6-.2-1.1-.5-1.4-.4-.5-.9-.7-1.6-.7-.6 0-1.1.2-1.5.6-.4.3-.6.8-.6 1.5zM166.3 442.6l.2 1.1c-.4.1-.7.1-1 .1-.5 0-.8-.1-1.1-.2-.3-.1-.4-.3-.5-.6-.1-.2-.2-.7-.2-1.5v-4.3h-.9v-1h.9v-1.8l1.3-.8v2.6h1.3v1H165v4.4c0 .4 0 .6.1.7 0 .1.1.2.2.2s.2.1.4.1h.6zM167.8 443.7v-10.3h6.9v1.2h-5.6v3.2h4.8v1.2h-4.8v4.7h-1.3zM176.4 434.9v-1.5h1.3v1.5h-1.3zm0 8.8v-7.5h1.3v7.5h-1.3zM182.3 442.6l.2 1.1c-.4.1-.7.1-1 .1-.5 0-.8-.1-1.1-.2-.3-.1-.4-.3-.5-.6-.1-.2-.2-.7-.2-1.5v-4.3h-.9v-1h.9v-1.8l1.3-.8v2.6h1.3v1H181v4.4c0 .4 0 .6.1.7 0 .1.1.2.2.2s.2.1.4.1h.6zM183.7 443.7v-10.3h2l2.4 7.3c.2.7.4 1.2.5 1.5.1-.4.3-.9.5-1.6l2.5-7.2h1.8v10.3h-1.3v-8.6l-3 8.6H188l-3-8.8v8.8h-1.3zM200.4 442.8c-.5.4-.9.7-1.4.8s-.9.2-1.4.2c-.8 0-1.4-.2-1.9-.6s-.7-.9-.7-1.5c0-.4.1-.7.2-1s.4-.5.7-.7c.3-.2.6-.3.9-.4.2-.1.6-.1 1.1-.2 1-.1 1.8-.3 2.3-.4v-.3c0-.5-.1-.9-.4-1.1-.3-.3-.8-.4-1.4-.4-.6 0-1 .1-1.3.3-.3.2-.5.6-.6 1.1l-1.2-.2c.1-.5.3-1 .6-1.3.3-.3.6-.6 1.1-.8.5-.2 1-.3 1.7-.3.6 0 1.2.1 1.6.2.4.1.7.3.9.6.2.2.3.5.4.9 0 .2.1.6.1 1.2v1.7c0 1.2 0 1.9.1 2.2l.3.9h-1.3c-.3-.2-.4-.5-.4-.9zm-.1-2.8c-.5.2-1.1.3-2.1.5-.5.1-.9.2-1.1.3-.2.1-.4.2-.5.4-.1.2-.2.4-.2.6 0 .3.1.6.4.8s.6.3 1.1.3c.5 0 .9-.1 1.3-.3s.7-.5.8-.9c.1-.3.2-.7.2-1.3v-.4zM203.5 443.7v-7.5h1.1v1c.2-.4.5-.7.9-.9.4-.2.8-.3 1.3-.3.6 0 1 .1 1.4.3.4.2.6.5.7 1 .6-.9 1.4-1.3 2.3-1.3.7 0 1.3.2 1.7.6s.6 1 .6 1.9v5.1h-1.3V439c0-.5 0-.9-.1-1.1-.1-.2-.2-.4-.4-.5-.2-.1-.5-.2-.8-.2-.5 0-1 .2-1.3.5-.3.3-.5.9-.5 1.7v4.3h-1.3v-4.8c0-.6-.1-1-.3-1.3-.2-.3-.5-.4-1-.4-.4 0-.7.1-1 .3-.3.2-.5.5-.7.8s-.2.9-.2 1.6v3.9h-1.1zM220.3 442.8c-.5.4-.9.7-1.4.8s-.9.2-1.4.2c-.8 0-1.4-.2-1.9-.6s-.7-.9-.7-1.5c0-.4.1-.7.2-1s.4-.5.7-.7c.3-.2.6-.3.9-.4.2-.1.6-.1 1.1-.2 1-.1 1.8-.3 2.3-.4v-.3c0-.5-.1-.9-.4-1.1-.3-.3-.8-.4-1.4-.4-.6 0-1 .1-1.3.3-.3.2-.5.6-.6 1.1l-1.2-.2c.1-.5.3-1 .6-1.3.3-.3.6-.6 1.1-.8.5-.2 1-.3 1.7-.3.6 0 1.2.1 1.6.2.4.1.7.3.9.6.2.2.3.5.4.9 0 .2.1.6.1 1.2v1.7c0 1.2 0 1.9.1 2.2l.3.9h-1.3c-.2-.2-.3-.5-.4-.9zm-.1-2.8c-.5.2-1.1.3-2.1.5-.5.1-.9.2-1.1.3-.2.1-.4.2-.5.4-.1.2-.2.4-.2.6 0 .3.1.6.4.8s.6.3 1.1.3c.5 0 .9-.1 1.3-.3s.7-.5.8-.9c.1-.3.2-.7.2-1.3v-.4z"/></g></svg></svg>