<?xml version="1.0" encoding="utf-8"?>
<!-- Generator: Adobe Illustrator 19.0.0, SVG Export Plug-In . SVG Version: 6.00 Build 0)  -->
<svg version="1.1" id="Flag_of_the_United_Kingdom" xmlns="http://www.w3.org/2000/svg" xmlns:xlink="http://www.w3.org/1999/xlink"
	 x="0px" y="0px" viewBox="-604 2535.3 20 10" style="enable-background:new -604 2535.3 20 10;" xml:space="preserve">
<style type="text/css">
	.st0{fill:#00247D;}
	.st1{fill:#FFFFFF;}
	.st2{fill:#CF142B;}
</style>
<g>
	<rect x="-604" y="2535.3" class="st0" width="20" height="10"/>
	<polygon class="st1" points="-584,2544.2 -584,2545.3 -586.2,2545.3 -592.3,2542.2 -592.9,2542 -593,2541.9 -594,2541.4 
		-594.2,2541.3 -595,2540.9 -595.1,2540.8 -595.7,2540.6 -595.9,2540.5 -599.6,2538.6 -604,2536.4 -604,2535.3 -601.8,2535.3 
		-595.7,2538.3 -595.1,2538.6 -595,2538.7 -594,2539.2 -594,2539.2 -593.8,2539.3 -593,2539.7 -592.9,2539.7 -592.9,2539.7 
		-592.3,2540 -592.1,2540.1 -588.4,2542 	"/>
	<polygon class="st2" points="-593.6,2539.8 -593.8,2540.2 -593.8,2540.3 -593.9,2540.4 -594,2540.3 -594.7,2539.9 -595,2539.8 
		-595.1,2539.7 -595.7,2539.5 -596,2539.3 -597.3,2538.6 -604,2535.3 -602.5,2535.3 -595.8,2538.6 -595.7,2538.7 -595,2539 
		-594.5,2539.3 -594.4,2539.4 	"/>
	<polygon class="st2" points="-584,2545.3 -585.5,2545.3 -592.2,2542 -592.3,2541.9 -593,2541.5 -593.5,2541.3 -593.6,2541.2 
		-594.2,2541 -593.9,2540.4 -593.8,2540.4 -593.3,2540.7 -593,2540.8 -592.9,2540.8 -592.3,2541.1 -592,2541.3 -590.7,2542 	"/>
	<polygon class="st1" points="-584,2535.3 -584,2536.4 -588.4,2538.6 -591.8,2540.3 -592.3,2540.6 -592.9,2540.8 -593,2540.9 
		-593.6,2541.2 -593.8,2541.3 -594,2541.4 -595,2541.9 -595.1,2542 -595.7,2542.2 -601.8,2545.3 -604,2545.3 -604,2544.2 
		-599.6,2542 -596.2,2540.3 -595.7,2540 -595.1,2539.7 -595,2539.7 -594.4,2539.4 -594.2,2539.3 -594,2539.2 -594,2539.2 
		-593,2538.7 -592.9,2538.6 -592.3,2538.3 -586.2,2535.3 	"/>
	<polygon class="st2" points="-593.9,2540.2 -594,2540.3 -595,2540.8 -595.1,2540.8 -595.7,2541.1 -596,2541.3 -597.3,2542 
		-604,2545.3 -604,2544.5 -598.8,2542 -597.5,2541.3 -595.9,2540.5 -595.7,2540.4 -594.7,2539.9 -594.2,2539.6 	"/>
	<polygon class="st2" points="-584,2535.3 -584,2536 -589.2,2538.6 -590.5,2539.3 -592.1,2540.1 -592.3,2540.2 -593.6,2540.8 
		-593.8,2540.4 -593.8,2540.3 -593.9,2540.2 -593.8,2540.2 -593,2539.8 -592.9,2539.7 -592.3,2539.5 -592,2539.3 -590.7,2538.6 	"/>
	<rect x="-595.7" y="2535.3" class="st1" width="3.3" height="10"/>
	<rect x="-604" y="2538.6" class="st1" width="20" height="3.3"/>
	<rect x="-595" y="2535.3" class="st2" width="2" height="10"/>
	<rect x="-604" y="2539.3" class="st2" width="20" height="2"/>
</g>
</svg>
