<?xml version="1.0" encoding="utf-8"?>
<!-- Generator: Adobe Illustrator 21.0.0, SVG Export Plug-In . SVG Version: 6.00 Build 0)  -->
<svg version="1.1" id="Layer_1" xmlns="http://www.w3.org/2000/svg" xmlns:xlink="http://www.w3.org/1999/xlink" x="0px" y="0px"
	 viewBox="0 0 188 60" style="enable-background:new 0 0 188 60;" xml:space="preserve">
<style type="text/css">
	.st0{fill:#26559A;}
	.st1{fill:#FFFFFF;}
</style>
<rect class="st0" width="188" height="60"/>
<path class="st1" d="M99,29.6c-1.3,0-2.2,0.4-3.1,0.8v9.5c0.9,0.1,1.4,0.1,2.2,0.1c3,0,3.4-1.4,3.4-3.3v-4.6
	C101.5,30.7,101.1,29.6,99,29.6 M78.9,29.1c-2.1,0-2.6,1.2-2.6,2.6v0.8h5.2v-0.8C81.4,30.2,81,29.1,78.9,29.1 M39.9,39
	c0,1.1,0.5,1.7,1.7,1.7c1.3,0,2-0.4,2.9-0.8v-2.3h-2.8C40.5,37.6,39.9,37.8,39.9,39 M118.5,29.6c-2.1,0-2.8,1.1-2.8,2.6v5.2
	c0,1.4,0.7,2.6,2.8,2.6c2.1,0,2.8-1.2,2.8-2.6v-5.2C121.3,30.7,120.6,29.6,118.5,29.6 M29.6,44.8h-6.2V29.9h-3.1v-5.2h3.1v-3.1
	c0-4.2,1.7-6.7,6.7-6.7h4.1v5.2h-2.6c-1.9,0-2.1,0.7-2.1,2.1l0,2.6h4.7l-0.5,5.2h-4.1V44.8z M50.7,44.8h-5.2l-0.2-1.3
	C43,44.8,40.9,45,39.5,45c-3.8,0-5.8-2.5-5.8-6c0-4.1,2.3-5.6,6.5-5.6h4.3v-0.9c0-2.1-0.2-2.7-3.5-2.7h-5.3l0.5-5.2h5.8
	c7.1,0,8.6,2.2,8.6,7.9L50.7,44.8L50.7,44.8z M68.3,30.2c-3.2-0.5-4.1-0.7-5.7-0.7c-2.8,0-3.6,0.6-3.6,3V37c0,2.4,0.8,3,3.6,3
	c1.5,0,2.5-0.1,5.7-0.7v5c-2.8,0.6-4.6,0.8-6.2,0.8c-6.6,0-9.3-3.5-9.3-8.5v-3.6c0-5,2.6-8.5,9.3-8.5c1.5,0,3.4,0.2,6.2,0.8V30.2z
	 M87.6,36.6H76.3V37c0,2.4,0.8,3,3.6,3c2.5,0,4-0.1,7.2-0.7v5c-3.1,0.6-4.7,0.8-7.7,0.8c-6.6,0-9.3-3.5-9.3-8.5v-4.1
	c0-4.4,2-8,8.8-8s8.8,3.6,8.8,8V36.6L87.6,36.6z M107.7,36.6c0,4.9-1.4,8.4-9.8,8.4c-3,0-4.8-0.3-8.2-0.8V16.5l6.2-1v9.7
	c1.3-0.5,3.1-0.7,4.6-0.7c6.2,0,7.2,2.8,7.2,7.2L107.7,36.6L107.7,36.6z M127.5,36.8c0,4.2-1.7,8.3-9,8.3c-7.3,0-9-4.1-9-8.3v-4.1
	c0-4.2,1.8-8.3,9-8.3c7.3,0,9,4.1,9,8.3V36.8L127.5,36.8z M147.3,36.8c0,4.2-1.7,8.3-9,8.3c-7.3,0-9-4.1-9-8.3v-4.1
	c0-4.2,1.8-8.3,9-8.3c7.3,0,9,4.1,9,8.3V36.8L147.3,36.8z M167.6,44.8h-6.7l-5.7-9.4v9.4h-6.2V16.5l6.2-1v18.2l5.7-9h6.7l-6.2,9.8
	L167.6,44.8L167.6,44.8z M138.3,29.6c-2.1,0-2.8,1.1-2.8,2.6v5.2c0,1.4,0.7,2.6,2.8,2.6s2.8-1.2,2.8-2.6v-5.2
	C141.1,30.7,140.4,29.6,138.3,29.6"/>
</svg>
