<?xml version="1.0" encoding="utf-8"?>
<!-- Generator: Adobe Illustrator 21.0.0, SVG Export Plug-In . SVG Version: 6.00 Build 0)  -->
<svg version="1.1" id="Layer_1" xmlns="http://www.w3.org/2000/svg" xmlns:xlink="http://www.w3.org/1999/xlink" x="0px" y="0px"
	 viewBox="0 0 23 23" style="enable-background:new 0 0 23 23;" xml:space="preserve">
<style type="text/css">
	.st0{fill:#3B5998;}
	.st1{fill:#FFFFFF;}
</style>
<g>
	<path class="st0" d="M5.5,0h12c3,0,5.5,2.5,5.5,5.5v12c0,3-2.5,5.5-5.5,5.5h-12c-3,0-5.5-2.5-5.5-5.5v-12C0,2.5,2.5,0,5.5,0z"/>
	<path class="st1" d="M12.3,23v-7.9H9.6v-3.1h2.7V9.8c0-2.6,1.7-4,4.1-4c1.2,0,2.2,0.1,2.4,0.1v2.7l-1.7,0c-1.3,0-1.6,0.6-1.6,1.5v2
		h3.1l-0.4,3.1h-2.7V23H12.3z"/>
</g>
</svg>
