<?xml version="1.0" encoding="utf-8"?>
<!-- Generator: Adobe Illustrator 21.0.0, SVG Export Plug-In . SVG Version: 6.00 Build 0)  -->
<svg version="1.1" id="Layer_1" xmlns="http://www.w3.org/2000/svg" xmlns:xlink="http://www.w3.org/1999/xlink" x="0px" y="0px"
	 viewBox="0 0 188 60" style="enable-background:new 0 0 188 60;" xml:space="preserve">
<style type="text/css">
	.st0{fill:url(#SVGID_1_);}
	.st1{fill:#FFFFFF;stroke:#FFFFFF;stroke-miterlimit:10;}
</style>
<linearGradient id="SVGID_1_" gradientUnits="userSpaceOnUse" x1="27.7717" y1="-10.3725" x2="185.0181" y2="90.2329" gradientTransform="matrix(1 0 0 -1 0 62)">
	<stop  offset="0" style="stop-color:#A9291C"/>
	<stop  offset="1" style="stop-color:#D84937"/>
</linearGradient>
<rect class="st0" width="188" height="60"/>
<polygon class="st1" points="117.5,18.6 109.5,18.6 109.5,10.6 107.2,10.6 107.2,18.6 99.2,18.6 99.2,20.9 107.2,20.9 107.2,28.9 
	109.5,28.9 109.5,20.9 117.5,20.9 "/>
<path class="st1" d="M71.3,39.5c3.8-5.3,11.1-5.8,14.7-5.3c-1-1.1-3.5-3.1-1.7-6.4c-8.1,1-10.7-4-11.1-7.9c-0.7-6.6,5-11.3,11-11.4
	h13.1c-0.4,0.4-2.6,1.9-3.2,1.9l-3.4,0c8.8,8.3,0.3,15.2-1.5,16.6c-3.5,4.3,7.5,6.4,6.9,13.6c0,6.6-5.5,10.9-14.2,10.9
	C72.4,51.5,67.8,45.5,71.3,39.5L71.3,39.5z M90.6,47.5c3.4-2.6,2.6-6.5,0-9.1c-1.6-1.6-3.5-3-7.6-2.6c-4.8,0.6-8.3,2.9-8.1,6.4
	C75.9,49.9,86.9,50.1,90.6,47.5L90.6,47.5L90.6,47.5z M88.3,25.1c4-3.3,0.3-14.6-5.1-14.6c-3.4,0-5.2,2.5-5.4,6
	C77.5,23,83.5,29,88.3,25.1z"/>
</svg>
