<?xml version="1.0" encoding="utf-8"?>
<!-- Generator: Adobe Illustrator 21.0.0, SVG Export Plug-In . SVG Version: 6.00 Build 0)  -->
<svg version="1.1" id="Layer_1" xmlns="http://www.w3.org/2000/svg" xmlns:xlink="http://www.w3.org/1999/xlink" x="0px" y="0px"
	 viewBox="0 0 23 22.2" style="enable-background:new 0 0 23 22.2;" xml:space="preserve">
<style type="text/css">
	.st0{fill:url(#SVGID_1_);}
	.st1{fill:#FFFFFF;}
</style>
<g>
	<linearGradient id="SVGID_1_" gradientUnits="userSpaceOnUse" x1="1.9221" y1="17.2273" x2="24.663" y2="2.6778">
		<stop  offset="0" style="stop-color:#A9291C"/>
		<stop  offset="1" style="stop-color:#D84937"/>
	</linearGradient>
	<path class="st0" d="M4.9,22.2h13.1c2.7,0,4.9-2.2,4.9-4.9V4.9C23,2.2,20.8,0,18.1,0H4.9C2.2,0,0,2.2,0,4.9v12.3
		C0,20,2.2,22.2,4.9,22.2z"/>
	<path class="st1" d="M3,14.9c1.5-2.1,4.5-2.3,5.9-2.1c-0.4-0.4-1.4-1.2-0.7-2.6C5,10.6,3.9,8.6,3.8,7c-0.3-2.7,2-4.6,4.4-4.6h5.3
		c-0.2,0.2-1.1,0.7-1.3,0.7l-1.4,0c3.5,3.3,0.1,6.1-0.6,6.7c-1.4,1.7,3,2.6,2.8,5.5c0,2.6-2.2,4.4-5.7,4.4C3.4,19.7,1.6,17.3,3,14.9
		L3,14.9z M10.8,18.1c1.4-1.1,1.1-2.6,0-3.7c-0.6-0.6-1.4-1.2-3.1-1c-1.9,0.2-3.3,1.1-3.3,2.6C4.8,19.1,9.3,19.2,10.8,18.1
		L10.8,18.1L10.8,18.1z M9.8,9.1c1.6-1.3,0.1-5.9-2.1-5.9c-1.4,0-2.1,1-2.2,2.4C5.5,8.3,7.9,10.7,9.8,9.1z"/>
	<polygon class="st1" points="20.5,9.8 17.9,9.8 17.9,7.2 17.1,7.2 17.1,9.8 14.5,9.8 14.5,10.6 17.1,10.6 17.1,13.2 17.9,13.2 
		17.9,10.6 20.5,10.6 	"/>
</g>
</svg>
