<?xml version="1.0" encoding="utf-8"?>
<!-- Generator: Adobe Illustrator 21.0.0, SVG Export Plug-In . SVG Version: 6.00 Build 0)  -->
<svg version="1.1" id="Layer_1" xmlns="http://www.w3.org/2000/svg" xmlns:xlink="http://www.w3.org/1999/xlink" x="0px" y="0px"
	 viewBox="0 0 23 23.1" style="enable-background:new 0 0 23 23.1;" xml:space="preserve">
<style type="text/css">
	.st0{fill:url(#SVGID_1_);}
	.st1{fill:url(#SVGID_2_);}
	.st2{fill:#FFFFFF;}
</style>
<g>
	
		<radialGradient id="SVGID_1_" cx="-288.3846" cy="731.1367" r="11.5363" gradientTransform="matrix(0 -1.982 1.8439 0 -1342.0132 -546.7305)" gradientUnits="userSpaceOnUse">
		<stop  offset="0" style="stop-color:#FFDD55"/>
		<stop  offset="0.1" style="stop-color:#FFDD55"/>
		<stop  offset="0.5" style="stop-color:#FF543E"/>
		<stop  offset="1" style="stop-color:#C837AB"/>
	</radialGradient>
	<path class="st0" d="M11.5,0C6.7,0,5.3,0,5.1,0c-1,0.1-1.6,0.2-2.3,0.5c-0.5,0.3-0.9,0.6-1.3,1C0.7,2.3,0.3,3.2,0.2,4.3
		C0,4.9,0,5,0,7.8c0,0.9,0,2.2,0,3.8c0,4.8,0,6.2,0,6.5c0.1,1,0.2,1.5,0.5,2.2c0.6,1.2,1.8,2.2,3.2,2.5c0.5,0.2,1,0.2,1.7,0.3
		c0.3,0,3.2,0,6.1,0s5.8,0,6.1,0c0.8,0,1.2-0.1,1.8-0.2c1.4-0.4,2.5-1.3,3.2-2.6c0.3-0.6,0.5-1.3,0.5-2.2c0-0.2,0-3.4,0-6.5
		s0-6.3,0-6.5c-0.1-0.9-0.2-1.5-0.5-2.2c-0.2-0.5-0.5-0.9-1-1.4c-0.8-0.7-1.7-1.2-2.8-1.3C18.2,0,18.1,0,15.3,0H11.5z"/>
	
		<radialGradient id="SVGID_2_" cx="305.4023" cy="399.5857" r="11.5363" gradientTransform="matrix(0.1739 0.8687 -3.5818 0.7172 1374.2535 -550.224)" gradientUnits="userSpaceOnUse">
		<stop  offset="0" style="stop-color:#3771C8"/>
		<stop  offset="0.128" style="stop-color:#3771C8"/>
		<stop  offset="1" style="stop-color:#6600FF;stop-opacity:0"/>
	</radialGradient>
	<path class="st1" d="M11.5,0C6.7,0,5.3,0,5.1,0c-1,0.1-1.6,0.2-2.3,0.5c-0.5,0.3-0.9,0.6-1.3,1C0.7,2.3,0.3,3.2,0.2,4.3
		C0,4.9,0,5,0,7.8c0,0.9,0,2.2,0,3.8c0,4.8,0,6.2,0,6.5c0.1,1,0.2,1.5,0.5,2.2c0.6,1.2,1.8,2.2,3.2,2.5c0.5,0.2,1,0.2,1.7,0.3
		c0.3,0,3.2,0,6.1,0s5.8,0,6.1,0c0.8,0,1.2-0.1,1.8-0.2c1.4-0.4,2.5-1.3,3.2-2.6c0.3-0.6,0.5-1.3,0.5-2.2c0-0.2,0-3.4,0-6.5
		s0-6.3,0-6.5c-0.1-0.9-0.2-1.5-0.5-2.2c-0.2-0.5-0.5-0.9-1-1.4c-0.8-0.7-1.7-1.2-2.8-1.3C18.2,0,18.1,0,15.3,0H11.5z"/>
	<path class="st2" d="M11.5,3C9.2,3,8.9,3,8,3.1c-0.8,0-1.5,0.2-2.1,0.4s-1,0.5-1.5,1C4,4.9,3.7,5.4,3.5,6C3.2,6.5,3.1,7.2,3.1,8
		C3,8.9,3,9.2,3,11.5s0,2.6,0.1,3.5c0.1,0.9,0.2,1.5,0.4,2.1c0.2,0.5,0.5,1,1,1.5c0.5,0.5,0.9,0.8,1.5,1c0.5,0.2,1.2,0.4,2.1,0.4
		c0.9,0.1,1.2,0.1,3.5,0.1s2.6,0,3.5-0.1c0.9-0.1,1.5-0.2,2.1-0.4c0.5-0.2,1-0.5,1.5-1c0.5-0.5,0.8-0.9,1-1.5
		c0.2-0.5,0.4-1.2,0.4-2.1c0.1-0.9,0.1-1.2,0.1-3.5s0-2.6-0.1-3.5S20,6.5,19.8,5.9s-0.5-1-1-1.5c-0.5-0.5-0.9-0.8-1.5-1
		c-0.7-0.2-1.3-0.3-2.2-0.3C14.2,3,13.8,3,11.5,3L11.5,3z M10.8,4.5c0.2,0,0.5,0,0.8,0c2.3,0,2.5,0,3.5,0.1c0.8,0,1.3,0.2,1.6,0.3
		c0.4,0.2,0.7,0.3,1,0.6c0.3,0.3,0.5,0.6,0.6,1c0.2,0.3,0.2,0.8,0.3,1.6c0.1,0.9,0.1,1.2,0.1,3.5s0,2.5-0.1,3.5
		c0,0.8-0.2,1.3-0.3,1.6c-0.2,0.4-0.3,0.7-0.6,1s-0.6,0.5-1,0.6c-0.3,0.2-0.8,0.2-1.6,0.3c-0.9,0.1-1.2,0.1-3.5,0.1s-2.5,0-3.5-0.1
		c-0.8,0-1.3-0.2-1.6-0.3c-0.4-0.2-0.7-0.3-1-0.6c-0.3-0.3-0.5-0.6-0.6-1c-0.2-0.3-0.2-0.8-0.3-1.6c-0.1-0.9-0.1-1.2-0.1-3.5
		s0-2.5,0.1-3.5c0-0.8,0.2-1.3,0.3-1.6c0.2-0.4,0.3-0.7,0.6-1c0.3-0.3,0.6-0.5,1-0.6c0.4-0.2,0.8-0.3,1.6-0.3
		C8.8,4.5,9.2,4.5,10.8,4.5L10.8,4.5z M16.1,6c-0.5,0-1,0.5-1,1s0.5,1,1,1c0.5,0,1-0.5,1-1S16.6,6,16.1,6L16.1,6z M11.5,7.2
		c-2.4,0-4.4,1.9-4.4,4.4s1.9,4.4,4.4,4.4c2.4,0,4.4-1.9,4.4-4.4S13.9,7.2,11.5,7.2L11.5,7.2z M11.5,8.7c1.5,0,2.8,1.3,2.8,2.8
		s-1.3,2.8-2.8,2.8s-2.8-1.3-2.8-2.8C8.7,10,10,8.7,11.5,8.7z"/>
</g>
</svg>
