<?xml version="1.0" encoding="utf-8"?>
<!-- Generator: Adobe Illustrator 21.0.0, SVG Export Plug-In . SVG Version: 6.00 Build 0)  -->
<svg version="1.1" id="Layer_1" xmlns="http://www.w3.org/2000/svg" xmlns:xlink="http://www.w3.org/1999/xlink" x="0px" y="0px"
	 viewBox="0 0 188 60" style="enable-background:new 0 0 188 60;" xml:space="preserve">
<style type="text/css">
	.st0{fill:#FFFFFF;}
	.st1{fill:none;}
</style>
<path class="st0" d="M188,60H0V0h188V60z"/>
<g>
	<path class="st1" d="M102.1,21.4c0,0-0.1,0-0.1,0c-1.8,0-2.9,2.1-3.3,4.5c-0.4,1.8-0.5,4.7,0.2,6.9c0.5,1.6,1.3,2.2,2.1,2.2
		c0.9,0,1.8-0.8,2.4-2c0.5-1.1,1.1-3,1.1-4.9C104.7,23.4,103.8,21.4,102.1,21.4z"/>
	<path class="st1" d="M132.8,21.4c-0.1,0-0.2,0-0.2,0c-1.7,0-2.8,1.8-3.1,4.2c-0.4,2.5-0.4,5.5,0.2,7.2c0.5,1.6,1.3,2.2,2.1,2.2
		c0.9,0,1.8-0.8,2.4-2c0.6-1.1,1.1-2.8,1.1-4.9C135.6,23.8,134.7,21.5,132.8,21.4z"/>
	<path class="st1" d="M99.6,46.5c-0.3,1.9,0.7,2.8,1.9,2.8c0.5,0,1.1-0.2,1.6-0.5c1.1-0.9,1.8-4,1.8-7.5c0-1.5,0-2.2,0-2.2
		C102,41.9,100.1,44.2,99.6,46.5z"/>
	<path class="st1" d="M84.3,21.4c-0.1,0-0.2,0-0.2,0c-1.6,0-2.7,1.8-3.1,4.2c-0.3,1.7-0.5,4.8,0.2,7.2c0.5,1.6,1.3,2.2,2.1,2.2
		c0.9,0,1.8-0.8,2.4-1.9c0.6-1.2,1.1-3,1.1-5C87.1,23.8,86.2,21.5,84.3,21.4z"/>
	<path d="M28.3,9.5c-0.3,0-0.5,0-0.7,0.1c-2.7,1.1-6,4.4-7.1,9.1c-0.6,2.4,0.2,4.1,1,5c1,1.3,2.3,1.8,2.8,1.8c0-0.1,0-0.2-0.3-0.6
		c-0.4-0.6-0.9-1.5-1.1-3.2c-0.5-4.1,1.6-8.5,3.8-10.4c0.2-0.2,0.4-0.2,0.5-0.2c0.2,0,0.6,0.1,0.7,0.8c0,0.2,0,0.5,0,0.9
		c0,0.7,0,3.6,0,7c0,4.7-0.1,10.3-0.1,12c0,4.3-0.2,5.6-0.5,6.7c-0.1,0.5-0.2,1-0.4,1.3c-0.1,0.2-0.1,0.4-0.2,0.6
		c0.6-0.1,1.7-0.8,2.5-1.8c1-1.5,1.6-3.3,1.7-5.8c0.1-2.7,0.1-7.1,0.1-9.4V10.7C31,10.2,29.6,9.5,28.3,9.5z"/>
	<path d="M167.8,32.2c0-1-0.2-1.1-0.2-1.1c0,0-0.2,0.2-0.3,0.8c-0.6,2.4-1.1,3.6-2.4,3.6c-1.3,0-2.2-1.7-2.3-4.4
		c-0.2-2.3-0.2-6.2,0.1-9.8c0-0.5,0-1.1-1.9-1.8c-0.4-0.2-0.8-0.3-1.2-0.3c-0.3,0-0.7,0.1-1,0.8c-1.6,3.8-2.5,7.4-2.7,9.3
		c0,0.3-0.2,0.5-0.5,0.5c-0.3,0-0.6-0.2-0.6-0.6c0-0.1,0-0.4-0.1-0.6c-0.1-1.2-0.3-3.3-0.3-7c0-0.8-0.1-1.3-0.9-1.8
		c-0.4-0.2-1.3-0.5-1.9-0.5c-0.3,0-0.5,0.1-0.6,0.2c-0.6,0.7-1.3,2.8-1.8,4.4c-0.5,1.7-1,2.9-1,2.9l-1,2.5v-2.7v-6.4
		c0-0.3-0.1-0.4-0.3-0.5c-0.7-0.2-1.8-0.4-2.2-0.4c-0.2,0-0.3,0-0.3,0.4l0,0.3c-0.1,5.3-0.1,8.4-0.1,10.1v0.6v0l0,0
		c-0.4,1.9-1.5,5-3.2,5c-2,0-2.3-2.3-2.3-6.7c0-1.6,0-2.7,0-3.7c0-0.9,0-1.7,0-2.6c0-0.9,0-1.7,0.1-2.1c0-0.1,0-0.2,0-0.3
		c0-0.1-0.2-0.3-1.3-0.6l0,0l-0.2,0c-0.4-0.1-0.7-0.1-1-0.1c-0.2,0-0.4,0.1-0.4,0.3v0.7v1.8l-0.9-1.6c-0.5-0.9-1.5-1.6-2.1-1.7
		c-0.4-0.1-0.9-0.2-1.3-0.2c-1.4,0-2.6,0.7-3.6,2c-1.2,1.8-1.9,3.6-2.1,6c-0.2,2.2-0.1,4.1,0.3,5.5l0,0.1l0,0.1
		c-0.6,2.6-1.7,3.1-2.6,3.1c-0.5,0-0.9-0.2-1.3-0.6c-0.9-0.9-1.4-3-1.3-5.7c0.1-2.1,0.4-3.8,0.9-5.9l0.2-0.8c0.2-0.9,0-1.3-0.3-1.7
		c-0.1-0.1-0.5-0.4-1.3-0.4c-0.3,0-0.6,0-0.9,0.1c-0.9,0.2-2.2,0.4-3.5,0.6l-0.8,0.1l0.3-0.8v0c0,0,0.1-0.2,0.1-0.6v0l0,0
		c0.1-0.5,0-0.9-0.2-1.2c-0.3-0.3-0.8-0.4-1.1-0.4c-0.5,0-1.1,0.2-1.4,0.5c-0.5,0.5-0.8,1-0.9,1.9c-0.2,1.4,0.9,2.1,0.9,2.1l0.3,0.2
		l-0.1,0.3c-0.4,2-1.5,4.8-2.8,7l-0.3,0.5c-0.5,0.8-0.9,1.5-1.4,2.3l-0.9,1.3v-1.6v-1c0-2.9,0-5.4,0.1-7.1c0-0.9,0-1.6,0-2
		c0-0.9,0-1.6,0.1-2c0-0.2,0-0.3,0-0.4c0-0.1,0-0.3-0.5-0.4c-0.5-0.2-1.1-0.3-1.6-0.3h0l0,0c0,0-0.1,0-0.1,0c-0.3,0-0.4,0.1-0.5,0.2
		c0,0,0,0.1,0,0.1l0,0v0v0.7v1.8l-0.9-1.6c-0.5-0.9-1.5-1.6-2.1-1.7c-0.4-0.1-0.9-0.2-1.3-0.2c-1.4,0-2.6,0.7-3.6,2
		c-1.1,1.6-1.9,3.8-2.1,5.9c-0.2,2.2-0.2,3.8,0.1,5.1l0,0.1l0,0.1c-0.3,1.7-1.3,3.5-2.6,3.5c-1.8,0-2.4-1.7-2.4-6.7
		c0-1.6,0-2.7,0-3.7c0-0.9,0-1.7,0-2.6c0-0.9,0-1.7,0.1-2.1c0-0.1,0-0.2,0-0.3c0-0.1-0.2-0.3-1.3-0.6l0,0c-0.5-0.1-1-0.2-1.3-0.2
		c-0.1,0-0.3,0.2-0.3,0.3v0.7v1.8l-0.9-1.6c-0.5-0.9-1.5-1.6-2.1-1.7c-0.4-0.1-0.9-0.2-1.3-0.2c-1.4,0-2.6,0.7-3.6,2
		c-1,1.4-1.7,2.8-2.1,5.9l0,0.2c-0.1,0.9-0.2,1.7-0.2,2.4v0l0,0c-0.4,2.5-2.2,5.5-4,5.5c-1.3,0-2.1-2.1-2.1-5.5
		c0-4.6,0.3-11,0.4-11.7l0.1-0.4h0.4h2.1c0.9,0,1.6,0,2.8-0.1c0.2-0.2,0.5-1.2,0.4-1.5c-0.4-0.1-2-0.2-2.7-0.2
		c-0.9-0.1-2.8-0.3-2.8-0.3l-0.5,0l0-0.5c0.1-1.5,0.2-4.4,0.2-4.7c0,0-0.2-0.1-0.3-0.2c0,0-0.1-0.1-0.1-0.1
		c-0.6-0.2-1.1-0.4-1.9-0.6c-0.2,0-0.3,0-0.5,0c-0.3,0-0.4,0-0.4,0.5c-0.2,1.3-0.2,4.9-0.2,5v0.5h-0.5c-0.4,0-1.2,0-2-0.1
		c-0.7,0-1.5-0.1-1.9-0.1c-0.1,0.1-0.4,0.6-0.5,1.2c-0.1,0.4,0,0.7,0,0.8c0,0,0,0,0,0c0.5,0,1.2,0,1.9,0c0.8,0,1.6,0,2.3,0h0.5
		l0,0.5c0,0.1-0.1,6.6-0.1,8.6V27v0l0,0c-0.7,3.7-3.2,5.8-3.3,5.8l-1.1,0.9l0.3-1.4c0.4-2-0.3-3.6-2.3-5.1c-0.7-0.5-2.1-1.6-3.7-2.7
		l-0.5-0.3l0.4-0.4c0,0,0.8-0.9,1.6-2.5c0.3-0.8,0.4-1.5,0.2-1.9c-0.1-0.2-0.3-0.4-0.6-0.5c-0.2-0.1-0.5-0.1-0.7-0.1
		c-1.7,0-3,1.4-3.4,2.7c-0.4,1.2-0.2,2.1,0.5,3.1c0.1,0.1,0.1,0.2,0.2,0.2l0.3,0.3l-0.2,0.3c-0.2,0.3-0.4,0.8-0.6,1.2
		c-0.4,0.7-0.8,1.6-1.2,2.3l-0.4,0.7c-1.7,3-2.7,4.8-3.9,4.8c-1.3,0-1.3-2.2-1.3-5c0-1.1,0.1-2.6,0.1-4.2c0-1.1,0.1-2.3,0.1-3.4
		c0-0.7-0.2-1.1-1-1.6c-0.1,0-0.2-0.1-0.3-0.2c-0.4-0.2-1.2-0.7-1.5-0.7c-2.1,0-4,2.3-5.6,7c-0.4,0.9-1,2.5-1,2.6l-1,2.7l0-2.9
		l0.1-8.6c0,0,0,0,0-0.1l-0.1,0l0,0c-0.4-0.3-1.4-0.6-2.3-0.6c-0.2,0-0.2,0-0.2,0.2l-0.1,13.6c0,1,0,2.2,0.1,2.6
		c0.1,0.5,0.2,0.9,0.4,1c0.1,0.2,0.3,0.3,0.5,0.3c0.1,0,0.6,0.1,1,0.1c0.7,0,0.8-0.1,0.8-0.1l0-0.2c0.1-0.8,0.2-2,1.1-5.4
		c1.8-6.3,4.1-9,4.8-9.6c0.2-0.2,0.4-0.3,0.6-0.3c0.3,0,0.6,0.2,0.6,0.7c0,0.7-0.1,2-0.1,3.6c0,1.1-0.1,2.3-0.1,3.4
		c-0.2,4,0.2,6.5,1.1,7.4c0.3,0.3,0.7,0.5,1.2,0.5c0.7,0,2.5-0.5,5.1-4.7c1.3-2.2,2.6-4.4,3.5-5.9l0.3-0.6l0.5,0.5
		c0.3,0.3,0.6,0.6,1,0.9c0.4,0.3,0.8,0.7,1.1,1.1c1.7,1.6,2.4,3.3,2,5c-0.2,0.9-1,2-2.3,2c-0.5,0-1.1-0.2-1.6-0.5
		c-0.5-0.4-0.8-0.6-1.4-1c-0.1,0-0.2-0.1-0.3-0.1c-0.1,0-0.1,0-0.2,0c-0.4,0.3-0.8,0.9-0.9,1.6l0,0l0,0c-0.1,0.3,0.2,0.6,1.1,1
		c0.6,0.3,2.1,0.6,3.1,0.6c0.1,0,0.2,0,0.2,0c3.8,0,6.5-2.1,8.4-6.7l0.8-1.9l0.2,2c0.2,3,1.2,6.5,4.4,6.5c1.7,0,3.4-2.3,4.2-4.6
		l0.5-1.5l0.4,1.5c0.3,1,0.6,1.8,1,2.4c0.8,1.3,2.1,2.1,3.5,2.1c1.6,0,3.2-0.9,4.3-2.4c0.6-0.8,0.7-1.1,0.7-1.1l0.7-2.1l0.3,2.2
		c0.3,2.5,2.2,3.3,3.4,3.3c1.5,0,2.7-0.9,3.5-2.7l0.5-1.1l0.4,1.2c0.1,0.2,0.2,0.4,0.3,0.5l0,0l0,0c0.8,1.3,2.1,2.1,3.5,2.1
		c1.6,0,3.2-0.9,4.2-2.4c0.1-0.2,0.2-0.4,0.3-0.4l0.8-0.8l0.1,1.1l0.1,1.8l0,0.2l-0.2,0.2l-1.9,1.8c-3.3,3-5.7,5.3-5.8,7.7
		c-0.3,3.7,3.5,4.2,4.2,4.3c0.1,0,0.3,0,0.4,0c1.7,0,3.4-1,4.4-2.6c1-1.4,1.6-4.5,1.6-7.7c0-0.6,0-1.3,0-2c0-0.9,0-1.7,0-2.7v-0.2
		l0.1-0.1c1.2-1.4,2.5-3.2,3.7-5c1.4-2.4,2.7-5.2,3.4-7.3l0.1-0.4h0.4c0,0,1.2,0,2.5-0.1c0,0,0,0,0,0c0.3,0,0.6,0,0.8,0.3
		c0.1,0.2,0.2,0.4,0.1,0.7c-0.3,1-1.5,6.4-0.3,10.1c0.9,2.6,3,3.3,4,3.3c1.3,0,2.6-1,3.3-2.5l0.4-0.9l0.5,0.9l0.1,0.2l0.1,0.3
		c1.1,1.7,2.5,2.1,3.5,2.1c1.6,0,3.2-0.9,4.3-2.4c0.5-0.7,0.7-1.2,0.7-1.2l0.7-1.4l0.2,1.6c0.4,2.8,2.6,3.4,3.5,3.4
		c1,0,2.2-0.3,3.1-2.7l1-2.5v2.6c0,1,0.1,1.7,0.1,2c0,0,0.2,0.1,0.3,0.2c0.1,0,0.1,0.1,0.2,0.1c0.5,0.2,1,0.2,1.5,0.2
		c0.5,0,0.9-0.1,1.1-0.1c0,0,0.1,0,0.2-0.5c0-0.4,0-0.9,0-1.4c0-1.7,0.1-3.8,0.5-5.5c0.8-3.3,1.6-4.8,2-5.7c0.1-0.1,0.1-0.2,0.1-0.3
		l0,0l0,0c0.2-0.3,0.4-0.5,0.7-0.5c0.1,0,0.6,0,0.6,0.8c0,0.9,0.1,3.4,0.4,6.6c0.3,2.6,0.6,3.8,0.8,4.1c0.6,1.1,1.3,1.2,1.9,1.2
		c0.4,0,0.7-0.1,0.9-0.2c0,0,0.1-0.1,0-0.2c0-1.2,0.1-3.5,0.9-6.7c0.7-2.5,1.6-4.8,1.9-5.4c0.1-0.4,0.4-0.4,0.6-0.4
		c0.4,0,0.6,0.3,0.6,0.6c0,0.3-0.4,6.5,0.4,9.7c0.9,3.8,3.4,4,3.9,4C166.6,37,167.5,34.4,167.8,32.2z M87.3,28.1
		c-0.1,2-0.5,3.8-1.2,5.2c-0.7,1.4-1.8,2.2-2.8,2.2c-0.7,0-1.9-0.3-2.6-2.5c-0.8-2.8-0.4-6.4-0.2-7.5c0.5-3,1.8-4.7,3.6-4.7
		c0.1,0,0.2,0,0.3,0C85.9,21,87.6,22.4,87.3,28.1z M105,28.2c-0.1,2.1-0.7,4.1-1.2,5.1c-0.7,1.4-1.8,2.2-2.9,2.2
		c-0.7,0-1.9-0.3-2.6-2.6c-0.7-2.3-0.6-5.3-0.2-7.1c0.6-3.1,2-4.9,3.8-4.9c0,0,0.1,0,0.1,0c0,0,0,0,0,0c0.6,0,1.2,0.2,1.6,0.7
		C104.7,22.6,105.1,24.7,105,28.2z M105.4,39.1v2.2c0,1.5-0.1,6.5-2,7.9c-0.6,0.4-1.2,0.7-1.9,0.7c-0.8,0-1.4-0.3-1.9-0.8
		c-0.4-0.4-0.8-1.3-0.6-2.6c0.5-2.5,2.5-4.8,5.4-7.7l0.8-0.8V39.1z M135.8,28.2c-0.1,2.1-0.5,3.8-1.2,5.1c-0.7,1.4-1.7,2.2-2.8,2.2
		c-0.7,0-1.9-0.3-2.6-2.6c-0.6-2-0.5-5.2-0.2-7.4c0.4-2.9,1.7-4.7,3.6-4.7c0.1,0,0.2,0,0.3,0C134.4,21,136.2,22.4,135.8,28.2z"/>
</g>
</svg>
