<?xml version="1.0" encoding="utf-8"?>
<!-- Generator: Adobe Illustrator 21.0.0, SVG Export Plug-In . SVG Version: 6.00 Build 0)  -->
<svg version="1.1" id="cdr_x5F_layer2" xmlns="http://www.w3.org/2000/svg" xmlns:xlink="http://www.w3.org/1999/xlink" x="0px"
	 y="0px" viewBox="0 0 245 54.8" style="enable-background:new 0 0 245 54.8;" xml:space="preserve">
<style type="text/css">
	.st0{fill-rule:evenodd;clip-rule:evenodd;stroke:#000000;stroke-width:0;stroke-miterlimit:10;}
	.st1{fill:#FFFFFF;}
</style>
<g>
	<rect class="st0" width="245" height="54.8"/>
	<path class="st1" d="M17.4,14.5h13.1c0,0.3,0,0.5,0,0.5c0,2.7-0.1,4.7-0.2,6c-0.2,2.2-1.5,3.5-3.7,3.9c-1,0.2-2.1,0.3-3.3,0.4
		c-1.2,0.1-3.1,0.1-5.7,0.1c-3.2,0-5.5-0.1-6.9-0.3c-1.3-0.2-2.4-0.5-3.2-1c-0.5-0.4-0.9-0.8-1.2-1.4c-0.3-0.6-0.5-1.3-0.6-2.2
		c-0.1-0.9-0.2-2.5-0.2-5.1c0-1.7,0-3,0.1-3.9C5.8,10.7,6,10,6.3,9.3C6.8,7.8,8,6.9,9.7,6.6c1.9-0.3,4.9-0.5,8.9-0.5
		c2.4,0,4.2,0.1,5.6,0.2c1.4,0.1,2.5,0.3,3.4,0.6c1.4,0.4,2.3,1.4,2.6,2.9c0.2,0.7,0.2,1.8,0.2,3.1h-5.7c0-0.5,0-0.9-0.1-1.1
		s-0.2-0.3-0.3-0.5c-0.3-0.2-1-0.4-2-0.4c-1-0.1-2.4-0.1-4.2-0.1c-2,0-3.4,0-4.3,0.1c-0.9,0.1-1.4,0.3-1.7,0.5
		c-0.3,0.3-0.5,0.7-0.6,1.3c-0.1,0.6-0.2,1.6-0.2,3c0,1.6,0.1,2.7,0.2,3.3c0.1,0.6,0.3,1.1,0.6,1.3c0.3,0.3,0.7,0.4,1.2,0.4
		c0.5,0.1,2.1,0.1,4.8,0.1c2.6,0,4.2,0,4.8-0.1c0.6,0,1-0.1,1.4-0.3c0.3-0.1,0.5-0.3,0.6-0.6c0.1-0.3,0.2-0.7,0.2-1.2
		c0-0.1,0-0.3,0-0.5h-7.6V14.5z M32.8,6.4h20.9v4.4H38.5v2.7h14.4v4.1H38.5v3h15.3v4.5h-21V6.4z M55.6,6.4h10.1l9.9,14h0.6L76,6.4
		h5.8v18.8h-10l-9.9-14h-0.6l0.1,14h-5.8V6.4z M83.1,6.4h22.8v4.8h-8.4v14h-6v-14h-8.4V6.4z M107.3,6.4h6v14h13.4v4.8h-19.4V6.4z
		 M128,6.4h20.9v4.4h-15.2v2.7h14.4v4.1h-14.4v3H149v4.5h-21V6.4z M150.8,6.4h10.4l5.6,12.2l5.6-12.2h10.3v18.8h-5.7l0.1-14.1h-0.9
		l-7.1,14.1h-4.8l-7.1-14.1h-1l0.1,14.1h-5.7V6.4z M205.8,25.2l-1.6-3.2h-12.5l-1.6,3.2h-6.6l10-18.8h8.9l9.9,18.8H205.8z
		 M202.2,17.9l-3.6-7.1h-1.1l-3.6,7.1H202.2z M213.2,6.4h10.1l9.9,14h0.6l-0.1-14h5.8v18.8h-10l-9.9-14h-0.6l0.1,14h-5.8V6.4z"/>
	<path class="st1" d="M74.4,41h2l4.1,6.4l4-6.4h2v7.6h-1v-6.6h-0.4L81,48.6h-0.8l-4.3-6.6h-0.4v6.6h-1V41z M141,48.6l-0.4,0.3
		c-0.1,0.1-0.2,0.2-0.2,0.4c0,0.1,0,0.2,0.1,0.3c0.1,0,0.2,0.1,0.3,0.1h0.5V50h-0.6c-0.3,0-0.5-0.1-0.6-0.2
		c-0.1-0.1-0.2-0.3-0.2-0.4v-0.3c0-0.2,0.1-0.3,0.2-0.5l0.2-0.2h-6.3V41h7.4v0.9h-6.4v2.3h6.1v0.9h-6.1v2.6h6.4v0.9H141z M92.5,41
		c1.3,0,2.2,0,2.7,0.1c0.5,0.1,0.9,0.2,1.2,0.5c0.2,0.2,0.3,0.3,0.3,0.5c0.1,0.2,0.1,0.5,0.2,0.9c0.1,0.5,0.1,1.1,0.1,1.8
		c0,0.9,0,1.6-0.1,2.1c-0.1,0.5-0.2,0.8-0.5,1c-0.2,0.2-0.6,0.4-1.1,0.5c-0.5,0.1-1.3,0.1-2.5,0.1c-0.6,0-1.2,0-1.9,0
		c-0.7,0-1.1,0-1.4-0.1c-0.4,0-0.7-0.1-0.9-0.2c-0.2-0.1-0.4-0.2-0.6-0.4c-0.2-0.2-0.4-0.6-0.5-1c-0.1-0.4-0.1-1.2-0.1-2.2
		c0-1.2,0.1-2.1,0.2-2.6c0.2-0.6,0.7-0.9,1.4-1.1C89.9,41,91,41,92.5,41z M92,41.9c-1.1,0-1.8,0-2.3,0.1c-0.3,0.1-0.5,0.1-0.6,0.2
		c-0.1,0.1-0.2,0.3-0.3,0.6c-0.1,0.4-0.1,1-0.1,1.9c0,0.8,0,1.4,0.1,1.8c0,0.4,0.1,0.6,0.3,0.8c0.1,0.1,0.2,0.2,0.4,0.2
		c0.2,0,0.5,0.1,0.9,0.1c0.6,0,1.4,0.1,2.3,0.1c1.2,0,2.1-0.1,2.7-0.1c0.4-0.1,0.7-0.3,0.8-0.8c0.1-0.5,0.1-1.1,0.1-1.9
		c0-1,0-1.7-0.1-2.1c-0.1-0.4-0.4-0.7-0.9-0.7c-0.3,0-0.6-0.1-1-0.1C93.7,41.9,93,41.9,92,41.9z M98,48.6V41h5.2c1.2,0,2,0,2.4,0.1
		c0.6,0.1,1,0.4,1.3,0.9c0.2,0.2,0.3,0.6,0.3,1c0.1,0.4,0.1,1,0.1,1.7c0,0.9-0.1,1.7-0.2,2.2c-0.3,0.8-0.8,1.3-1.6,1.5
		c-0.4,0.1-1.2,0.1-2.2,0.1H98z M99,47.7h4.2c0.7,0,1.2,0,1.4,0c0.2,0,0.4,0,0.6-0.1c0.4-0.1,0.7-0.4,0.9-0.8c0.2-0.4,0.3-1.1,0.3-2
		c0-1.2-0.2-2-0.5-2.3c-0.1-0.1-0.3-0.3-0.5-0.3c-0.2-0.1-0.4-0.1-0.8-0.2c-0.2,0-0.7,0-1.4,0H99V47.7z M116.4,48.6l-0.9-1.6h-6.1
		l-0.9,1.6h-1.1l4.3-7.6h1.6l4.3,7.6H116.4z M115.1,46.1l-2.4-4.2h-0.4l-2.4,4.2H115.1z M120.8,41h2l4.1,6.4l4-6.4h2v7.6h-1v-6.6
		h-0.4l-4.2,6.6h-0.8l-4.3-6.6h-0.4v6.6h-1V41z M142,46l1,0c0,0.1,0,0.1,0,0.2c0,0.4,0,0.7,0.1,0.9c0.1,0.2,0.2,0.3,0.3,0.3
		c0.3,0.1,1.2,0.2,2.7,0.2c1.1,0,1.9,0,2.4-0.1c0.5-0.1,0.7-0.5,0.7-1.1c0-0.3,0-0.6-0.1-0.8c-0.1-0.2-0.2-0.3-0.4-0.4
		c-0.2-0.1-0.5-0.1-0.8-0.1c-0.3,0-1.4,0-3.3-0.1c-0.6,0-1.1-0.1-1.5-0.2c-0.4-0.1-0.7-0.3-0.9-0.6c-0.2-0.3-0.3-0.8-0.3-1.4
		c0-0.7,0.2-1.2,0.6-1.5c0.2-0.2,0.4-0.3,0.6-0.3c0.2-0.1,0.5-0.1,0.9-0.2c0.7-0.1,1.5-0.1,2.4-0.1c0.9,0,1.5,0.1,2,0.2
		c0.5,0.1,0.8,0.3,1.1,0.5c0.2,0.2,0.4,0.4,0.4,0.6c0.1,0.2,0.1,0.6,0.1,1.1l-1,0c0-0.1,0-0.1,0-0.1c0-0.4,0-0.6-0.1-0.8
		c-0.1-0.2-0.4-0.4-0.8-0.4c-0.4-0.1-1-0.2-1.8-0.2c-1,0-1.7,0-2.2,0.1c-0.5,0.1-0.8,0.2-1,0.4c-0.2,0.2-0.3,0.4-0.3,0.8
		c0,0.3,0,0.6,0.1,0.7c0.1,0.1,0.2,0.3,0.5,0.3c0.3,0.1,1,0.2,2,0.2c0.3,0,1.2,0,2.5,0.1c0.5,0,1,0.1,1.2,0.2
		c0.3,0.1,0.5,0.3,0.7,0.5c0.2,0.3,0.3,0.8,0.3,1.4c0,0.6-0.1,1-0.3,1.3c-0.2,0.4-0.7,0.6-1.3,0.7c-0.6,0.1-1.7,0.2-3.3,0.1
		c-0.8,0-1.5-0.1-1.8-0.1c-0.4-0.1-0.7-0.2-0.9-0.3c-0.3-0.2-0.5-0.4-0.6-0.6c-0.1-0.2-0.1-0.6-0.1-1.1C142,46.4,142,46.3,142,46z
		 M151.3,41h1v3.2h1.3l4.9-3.2h1.8l-5.6,3.7l5.9,3.9h-1.8l-5.2-3.4h-1.3v3.4h-1V41z M169.4,48.6l-0.9-1.6h-6.1l-0.9,1.6h-1.1
		l4.3-7.6h1.6l4.3,7.6H169.4z M168.1,46.1l-2.4-4.2h-0.4l-2.4,4.2H168.1z"/>
	<rect x="38.2" y="32.4" class="st1" width="168.6" height="1.3"/>
</g>
<g id="MasterLayer_1">
</g>
</svg>
