<?xml version="1.0" encoding="utf-8"?>
<!-- Generator: Adobe Illustrator 19.0.0, SVG Export Plug-In . SVG Version: 6.00 Build 0)  -->
<svg version="1.1" id="Layer_1" xmlns="http://www.w3.org/2000/svg" xmlns:xlink="http://www.w3.org/1999/xlink" x="0px" y="0px"
	 viewBox="127.3 353.9 84.2 54.7" style="enable-background:new 127.3 353.9 84.2 54.7;" xml:space="preserve">
<style type="text/css">
	.st0{fill:#79CFCE;}
	.st1{fill:#FE7AA1;}
	.st2{enable-background:new    ;}
</style>
<g>
	<g id="surface2" transform="matrix(1,0,0,1,0,0)">
		<path class="st0" d="M176.2,384.9c-4.2-2.7-7.6-4.7-10.3-5.9c-2.7-1.2-4.7-1.7-6-1.4c-1.3,0.2-2.2,0.9-2.6,2
			c-0.4,1.1-0.4,2.6,0,4.5c0.4,1.8,0.9,3.8,1.7,6c-0.7,0.1-1.3,0.3-2,0.4c-0.7,0.2-1.3,0.3-2,0.5c-1.1-3.7-1.7-6.8-1.9-9.2
			c-0.2-2.4,0-4.3,0.5-5.6c0.5-1.3,1.3-2.2,2.4-2.6c1.1-0.4,2.4-0.4,3.9,0c1.5,0.3,3.2,1,5,2c1.8,1,3.7,2.1,5.7,3.4
			c2,1.3,3.9,2.8,5.9,4.3c2,1.6,3.9,3.1,5.8,4.7c1.8,1.5,3.6,3,5.2,4.5c1.6,1.4,3,2.7,4.2,3.8C185.6,391.4,180.4,387.7,176.2,384.9"
			/>
		<path class="st1" d="M161.3,353.9c-0.7,0-1.4,0.2-2,0.5c-0.6,0.4-1.1,0.8-1.4,1.5c-0.4,0.6-0.5,1.3-0.5,2c0,0.7,0.2,1.4,0.5,2
			c0.4,0.6,0.8,1.1,1.4,1.4c0.6,0.4,1.3,0.5,2,0.6c0.8,0,1.4-0.2,2-0.6c0.6-0.4,1.1-0.8,1.5-1.4c0.4-0.6,0.5-1.3,0.5-2
			c0-0.8-0.2-1.4-0.5-2c-0.4-0.6-0.8-1.1-1.5-1.5C162.7,354.1,162,353.9,161.3,353.9 M178.4,361.2c-0.8-0.5-1.9-0.7-3-0.5
			c-1.2,0.2-2.5,0.7-3.9,1.4c-1.5,0.8-2.9,1.6-4.5,2.6c-1.5,1-3,1.9-4.6,2.9c-1.5,1-3,1.8-4.3,2.5c-1.3,0.7-2.5,1.2-3.6,1.4
			c-1.1,0.2-1.9,0-2.6-0.5c-0.6-0.6-1-1.7-1.1-3.2c-0.1-1.6,0.2-3.8,0.8-6.6c0.5,0.1,1,0.1,1.5,0.2c0.5,0.1,1,0.2,1.5,0.3
			c-0.5,1.8-0.7,3.2-0.6,4c0.1,0.9,0.5,1.4,1.1,1.6c0.6,0.2,1.4,0.1,2.4-0.3c1-0.4,2.1-0.9,3.4-1.5c1.3-0.6,2.6-1.3,4-2.1
			c1.4-0.8,2.8-1.5,4.1-2.2c1.4-0.7,2.7-1.2,4-1.6c1.3-0.4,2.4-0.5,3.4-0.4c1,0.1,1.8,0.6,2.5,1.3c0.6,0.8,1,2,1.1,3.7
			C179.8,362.8,179.2,361.7,178.4,361.2"/>
	</g>
	<g class="st2">
		<path class="st0" d="M132.9,404v-1.3l4.7,0v4.1c-0.7,0.6-1.5,1-2.2,1.3c-0.8,0.3-1.6,0.4-2.4,0.4c-1.1,0-2.1-0.2-3-0.7
			c-0.9-0.5-1.6-1.1-2-2s-0.7-1.9-0.7-3c0-1.1,0.2-2.1,0.7-3c0.5-0.9,1.1-1.6,2-2.1c0.9-0.5,1.8-0.7,2.9-0.7c0.8,0,1.5,0.1,2.2,0.4
			c0.7,0.3,1.2,0.6,1.5,1.1c0.4,0.5,0.7,1.1,0.8,1.8l-1.3,0.4c-0.2-0.6-0.4-1-0.6-1.3c-0.2-0.3-0.6-0.6-1.1-0.8
			c-0.5-0.2-1-0.3-1.5-0.3c-0.7,0-1.3,0.1-1.7,0.3c-0.5,0.2-0.9,0.5-1.2,0.8c-0.3,0.3-0.5,0.7-0.7,1.1c-0.3,0.7-0.4,1.4-0.4,2.2
			c0,1,0.2,1.8,0.5,2.5c0.3,0.7,0.8,1.2,1.5,1.5c0.7,0.3,1.3,0.5,2.1,0.5c0.6,0,1.3-0.1,1.9-0.4c0.6-0.2,1.1-0.5,1.4-0.8V404H132.9z
			"/>
		<path class="st0" d="M145.1,405.8l1.4,0.2c-0.2,0.8-0.6,1.5-1.2,1.9c-0.6,0.5-1.4,0.7-2.3,0.7c-1.2,0-2.1-0.4-2.8-1.1
			c-0.7-0.7-1-1.7-1-3.1c0-1.4,0.3-2.4,1-3.2c0.7-0.8,1.6-1.1,2.7-1.1c1.1,0,2,0.4,2.6,1.1s1,1.8,1,3.1c0,0.1,0,0.2,0,0.4h-6
			c0.1,0.9,0.3,1.6,0.8,2c0.5,0.5,1,0.7,1.7,0.7c0.5,0,0.9-0.1,1.3-0.4C144.6,406.8,144.9,406.4,145.1,405.8z M140.6,403.6h4.5
			c-0.1-0.7-0.2-1.2-0.5-1.5c-0.4-0.5-1-0.8-1.7-0.8c-0.6,0-1.2,0.2-1.6,0.6C140.9,402.3,140.7,402.9,140.6,403.6z"/>
		<path class="st0" d="M151.2,407.2l0.2,1.2c-0.4,0.1-0.7,0.1-1,0.1c-0.5,0-0.9-0.1-1.2-0.2c-0.3-0.2-0.5-0.4-0.6-0.6
			c-0.1-0.3-0.2-0.8-0.2-1.6v-4.6h-1v-1.1h1v-2l1.4-0.8v2.8h1.4v1.1h-1.4v4.7c0,0.4,0,0.6,0.1,0.8c0,0.1,0.1,0.2,0.2,0.3
			c0.1,0.1,0.3,0.1,0.5,0.1C150.8,407.2,151,407.2,151.2,407.2z"/>
		<path class="st0" d="M152.8,408.4v-11.1h7.5v1.3h-6v3.5h5.2v1.3h-5.2v5.1H152.8z"/>
		<path class="st0" d="M162.1,398.8v-1.6h1.4v1.6H162.1z M162.1,408.4v-8.1h1.4v8.1H162.1z"/>
		<path class="st0" d="M168.5,407.2l0.2,1.2c-0.4,0.1-0.7,0.1-1,0.1c-0.5,0-0.9-0.1-1.2-0.2c-0.3-0.2-0.5-0.4-0.6-0.6
			c-0.1-0.3-0.2-0.8-0.2-1.6v-4.6h-1v-1.1h1v-2l1.4-0.8v2.8h1.4v1.1h-1.4v4.7c0,0.4,0,0.6,0.1,0.8c0,0.1,0.1,0.2,0.2,0.3
			c0.1,0.1,0.3,0.1,0.5,0.1C168.1,407.2,168.3,407.2,168.5,407.2z"/>
		<path class="st0" d="M170,408.4v-11.1h2.2l2.6,7.9c0.2,0.7,0.4,1.3,0.5,1.6c0.1-0.4,0.3-1,0.6-1.8l2.7-7.8h2v11.1h-1.4v-9.3
			l-3.2,9.3h-1.3l-3.2-9.5v9.5H170z"/>
		<path class="st0" d="M188.1,407.4c-0.5,0.4-1,0.7-1.5,0.9c-0.5,0.2-1,0.3-1.5,0.3c-0.9,0-1.6-0.2-2-0.6c-0.5-0.4-0.7-1-0.7-1.7
			c0-0.4,0.1-0.8,0.3-1.1c0.2-0.3,0.4-0.6,0.7-0.8c0.3-0.2,0.6-0.3,1-0.4c0.3-0.1,0.7-0.1,1.2-0.2c1.1-0.1,1.9-0.3,2.4-0.5
			c0-0.2,0-0.3,0-0.4c0-0.6-0.1-1-0.4-1.2c-0.3-0.3-0.9-0.5-1.6-0.5c-0.6,0-1.1,0.1-1.4,0.3c-0.3,0.2-0.5,0.6-0.7,1.2l-1.3-0.2
			c0.1-0.6,0.3-1,0.6-1.4c0.3-0.4,0.7-0.6,1.2-0.8c0.5-0.2,1.1-0.3,1.8-0.3c0.7,0,1.2,0.1,1.7,0.2c0.4,0.2,0.7,0.4,1,0.6
			c0.2,0.2,0.3,0.6,0.4,0.9c0,0.2,0.1,0.7,0.1,1.3v1.8c0,1.3,0,2.1,0.1,2.4c0.1,0.3,0.2,0.7,0.3,1h-1.4
			C188.3,408.1,188.2,407.8,188.1,407.4z M188,404.4c-0.5,0.2-1.2,0.4-2.2,0.5c-0.6,0.1-1,0.2-1.2,0.3c-0.2,0.1-0.4,0.2-0.5,0.4
			c-0.1,0.2-0.2,0.4-0.2,0.7c0,0.4,0.1,0.7,0.4,0.9c0.3,0.2,0.7,0.4,1.2,0.4c0.5,0,1-0.1,1.4-0.3c0.4-0.2,0.7-0.5,0.9-0.9
			c0.1-0.3,0.2-0.8,0.2-1.4V404.4z"/>
		<path class="st0" d="M191.5,408.4v-8.1h1.2v1.1c0.3-0.4,0.6-0.7,1-1c0.4-0.2,0.9-0.4,1.4-0.4c0.6,0,1.1,0.1,1.5,0.4
			c0.4,0.2,0.7,0.6,0.8,1c0.6-0.9,1.5-1.4,2.5-1.4c0.8,0,1.4,0.2,1.8,0.7c0.4,0.4,0.6,1.1,0.6,2v5.5h-1.4v-5.1c0-0.5,0-0.9-0.1-1.2
			c-0.1-0.2-0.2-0.4-0.5-0.6c-0.2-0.1-0.5-0.2-0.8-0.2c-0.6,0-1,0.2-1.4,0.6c-0.4,0.4-0.6,1-0.6,1.8v4.7h-1.4v-5.2
			c0-0.6-0.1-1.1-0.3-1.4s-0.6-0.5-1.1-0.5c-0.4,0-0.7,0.1-1.1,0.3s-0.6,0.5-0.7,0.9c-0.1,0.4-0.2,1-0.2,1.7v4.2H191.5z"/>
		<path class="st0" d="M209.8,407.4c-0.5,0.4-1,0.7-1.5,0.9c-0.5,0.2-1,0.3-1.5,0.3c-0.9,0-1.6-0.2-2-0.6c-0.5-0.4-0.7-1-0.7-1.7
			c0-0.4,0.1-0.8,0.3-1.1c0.2-0.3,0.4-0.6,0.7-0.8c0.3-0.2,0.6-0.3,1-0.4c0.3-0.1,0.7-0.1,1.2-0.2c1.1-0.1,1.9-0.3,2.4-0.5
			c0-0.2,0-0.3,0-0.4c0-0.6-0.1-1-0.4-1.2c-0.3-0.3-0.9-0.5-1.6-0.5c-0.6,0-1.1,0.1-1.4,0.3c-0.3,0.2-0.5,0.6-0.7,1.2l-1.3-0.2
			c0.1-0.6,0.3-1,0.6-1.4c0.3-0.4,0.7-0.6,1.2-0.8c0.5-0.2,1.1-0.3,1.8-0.3c0.7,0,1.2,0.1,1.7,0.2c0.4,0.2,0.7,0.4,1,0.6
			c0.2,0.2,0.3,0.6,0.4,0.9c0,0.2,0.1,0.7,0.1,1.3v1.8c0,1.3,0,2.1,0.1,2.4c0.1,0.3,0.2,0.7,0.3,1H210
			C209.9,408.1,209.8,407.8,209.8,407.4z M209.6,404.4c-0.5,0.2-1.2,0.4-2.2,0.5c-0.6,0.1-1,0.2-1.2,0.3c-0.2,0.1-0.4,0.2-0.5,0.4
			c-0.1,0.2-0.2,0.4-0.2,0.7c0,0.4,0.1,0.7,0.4,0.9c0.3,0.2,0.7,0.4,1.2,0.4c0.5,0,1-0.1,1.4-0.3c0.4-0.2,0.7-0.5,0.9-0.9
			c0.1-0.3,0.2-0.8,0.2-1.4V404.4z"/>
	</g>
</g>
</svg>
