<?xml version="1.0" encoding="utf-8"?>
<!-- Generator: Adobe Illustrator 19.0.0, SVG Export Plug-In . SVG Version: 6.00 Build 0)  -->
<svg version="1.1" id="Layer_1" xmlns="http://www.w3.org/2000/svg" xmlns:xlink="http://www.w3.org/1999/xlink" x="0px" y="0px"
	 viewBox="144.2 393.4 77.7 50.5" style="enable-background:new 144.2 393.4 77.7 50.5;" xml:space="preserve">
<style type="text/css">
	.st0{fill:#2595CD;}
	.st1{fill:#C74E83;}
	.st2{enable-background:new    ;}
	.st3{fill:#79CFCE;}
</style>
<g>
	<g id="surface2_1_" transform="matrix(1,0,0,1,0,0)">
		<path class="st0" d="M189.4,422c-3.9-2.5-7.1-4.3-9.5-5.4c-2.5-1.1-4.3-1.5-5.6-1.3s-2,0.8-2.4,1.8c-0.3,1-0.3,2.4,0,4.1
			c0.3,1.7,0.9,3.6,1.6,5.5c-0.6,0.1-1.2,0.2-1.8,0.4c-0.6,0.2-1.2,0.3-1.9,0.4c-1-3.5-1.6-6.3-1.7-8.5c-0.2-2.2,0-3.9,0.4-5.2
			c0.5-1.2,1.2-2,2.2-2.3c1-0.3,2.2-0.3,3.6,0s2.9,0.9,4.6,1.8c1.7,0.9,3.4,1.9,5.2,3.2c1.8,1.2,3.6,2.6,5.5,4
			c1.8,1.4,3.6,2.9,5.3,4.3c1.7,1.4,3.3,2.8,4.8,4.2c1.5,1.3,2.8,2.5,3.8,3.5C198,428,193.3,424.6,189.4,422"/>
		<path class="st1" d="M175.6,393.4c-0.7,0-1.3,0.2-1.9,0.5c-0.6,0.3-1,0.8-1.3,1.3c-0.3,0.6-0.5,1.2-0.5,1.9c0,0.7,0.2,1.3,0.5,1.9
			c0.3,0.6,0.8,1,1.3,1.3c0.6,0.3,1.2,0.5,1.9,0.5c0.7,0,1.3-0.2,1.9-0.5c0.6-0.3,1-0.8,1.3-1.3c0.3-0.6,0.5-1.2,0.5-1.9
			c0-0.7-0.2-1.3-0.5-1.9c-0.3-0.6-0.8-1-1.3-1.3C176.9,393.6,176.3,393.4,175.6,393.4 M191.4,400.2c-0.8-0.5-1.7-0.6-2.8-0.4
			c-1.1,0.2-2.3,0.6-3.6,1.3c-1.3,0.7-2.7,1.5-4.1,2.4c-1.4,0.9-2.8,1.8-4.2,2.7c-1.4,0.9-2.7,1.7-4,2.3c-1.2,0.7-2.3,1.1-3.3,1.3
			c-1,0.2-1.8,0-2.4-0.5c-0.6-0.5-0.9-1.5-1-3c-0.1-1.4,0.2-3.5,0.7-6.1c0.5,0.1,0.9,0.1,1.4,0.2c0.5,0.1,1,0.2,1.4,0.3
			c-0.5,1.7-0.7,2.9-0.5,3.7c0.1,0.8,0.4,1.3,1,1.5c0.6,0.2,1.3,0.1,2.2-0.2c0.9-0.3,2-0.8,3.1-1.4c1.2-0.6,2.4-1.2,3.7-2
			c1.3-0.7,2.6-1.4,3.8-2c1.3-0.6,2.5-1.1,3.7-1.5c1.2-0.4,2.2-0.5,3.1-0.4c0.9,0.1,1.7,0.5,2.3,1.2c0.6,0.7,0.9,1.9,1,3.5
			C192.7,401.6,192.2,400.6,191.4,400.2"/>
	</g>
	<g class="st2">
		<path class="st3" d="M149.4,439.7v-1.2l4.4,0v3.8c-0.7,0.5-1.4,0.9-2.1,1.2c-0.7,0.3-1.4,0.4-2.2,0.4c-1,0-1.9-0.2-2.8-0.6
			s-1.4-1.1-1.9-1.9c-0.4-0.8-0.6-1.7-0.6-2.7c0-1,0.2-1.9,0.6-2.8c0.4-0.9,1-1.5,1.8-1.9c0.8-0.4,1.7-0.6,2.7-0.6
			c0.7,0,1.4,0.1,2,0.4c0.6,0.2,1.1,0.6,1.4,1c0.3,0.4,0.6,1,0.8,1.7l-1.2,0.3c-0.2-0.5-0.3-0.9-0.6-1.2c-0.2-0.3-0.6-0.5-1-0.7
			c-0.4-0.2-0.9-0.3-1.4-0.3c-0.6,0-1.2,0.1-1.6,0.3c-0.5,0.2-0.8,0.4-1.1,0.7s-0.5,0.6-0.6,1c-0.3,0.6-0.4,1.3-0.4,2.1
			c0,0.9,0.2,1.7,0.5,2.3c0.3,0.6,0.8,1.1,1.4,1.4c0.6,0.3,1.2,0.4,1.9,0.4c0.6,0,1.2-0.1,1.7-0.3c0.6-0.2,1-0.5,1.3-0.7v-1.9H149.4
			z"/>
		<path class="st3" d="M160.7,441.3l1.3,0.2c-0.2,0.8-0.6,1.4-1.1,1.8s-1.3,0.6-2.1,0.6c-1.1,0-2-0.3-2.6-1c-0.6-0.7-1-1.6-1-2.8
			c0-1.3,0.3-2.2,1-2.9s1.5-1,2.5-1c1,0,1.8,0.3,2.4,1c0.6,0.7,0.9,1.6,0.9,2.9c0,0.1,0,0.2,0,0.3h-5.6c0,0.8,0.3,1.4,0.7,1.9
			c0.4,0.4,0.9,0.7,1.6,0.7c0.5,0,0.9-0.1,1.2-0.4C160.2,442.2,160.5,441.9,160.7,441.3z M156.6,439.3h4.2c-0.1-0.6-0.2-1.1-0.5-1.4
			c-0.4-0.5-0.9-0.7-1.6-0.7c-0.6,0-1.1,0.2-1.5,0.6C156.8,438.1,156.6,438.6,156.6,439.3z"/>
		<path class="st3" d="M166.3,442.6l0.2,1.1c-0.4,0.1-0.7,0.1-1,0.1c-0.5,0-0.8-0.1-1.1-0.2c-0.3-0.1-0.4-0.3-0.5-0.6
			c-0.1-0.2-0.2-0.7-0.2-1.5v-4.3h-0.9v-1h0.9v-1.8l1.3-0.8v2.6h1.3v1h-1.3v4.4c0,0.4,0,0.6,0.1,0.7c0,0.1,0.1,0.2,0.2,0.2
			s0.2,0.1,0.4,0.1C165.9,442.6,166.1,442.6,166.3,442.6z"/>
		<path class="st3" d="M167.8,443.7v-10.3h6.9v1.2h-5.6v3.2h4.8v1.2h-4.8v4.7H167.8z"/>
		<path class="st3" d="M176.4,434.9v-1.5h1.3v1.5H176.4z M176.4,443.7v-7.5h1.3v7.5H176.4z"/>
		<path class="st3" d="M182.3,442.6l0.2,1.1c-0.4,0.1-0.7,0.1-1,0.1c-0.5,0-0.8-0.1-1.1-0.2c-0.3-0.1-0.4-0.3-0.5-0.6
			c-0.1-0.2-0.2-0.7-0.2-1.5v-4.3h-0.9v-1h0.9v-1.8l1.3-0.8v2.6h1.3v1H181v4.4c0,0.4,0,0.6,0.1,0.7c0,0.1,0.1,0.2,0.2,0.2
			s0.2,0.1,0.4,0.1C181.9,442.6,182.1,442.6,182.3,442.6z"/>
		<path class="st3" d="M183.7,443.7v-10.3h2l2.4,7.3c0.2,0.7,0.4,1.2,0.5,1.5c0.1-0.4,0.3-0.9,0.5-1.6l2.5-7.2h1.8v10.3h-1.3v-8.6
			l-3,8.6H188l-3-8.8v8.8H183.7z"/>
		<path class="st3" d="M200.4,442.8c-0.5,0.4-0.9,0.7-1.4,0.8s-0.9,0.2-1.4,0.2c-0.8,0-1.4-0.2-1.9-0.6s-0.7-0.9-0.7-1.5
			c0-0.4,0.1-0.7,0.2-1s0.4-0.5,0.7-0.7c0.3-0.2,0.6-0.3,0.9-0.4c0.2-0.1,0.6-0.1,1.1-0.2c1-0.1,1.8-0.3,2.3-0.4c0-0.2,0-0.3,0-0.3
			c0-0.5-0.1-0.9-0.4-1.1c-0.3-0.3-0.8-0.4-1.4-0.4c-0.6,0-1,0.1-1.3,0.3c-0.3,0.2-0.5,0.6-0.6,1.1l-1.2-0.2c0.1-0.5,0.3-1,0.6-1.3
			c0.3-0.3,0.6-0.6,1.1-0.8c0.5-0.2,1-0.3,1.7-0.3c0.6,0,1.2,0.1,1.6,0.2c0.4,0.1,0.7,0.3,0.9,0.6c0.2,0.2,0.3,0.5,0.4,0.9
			c0,0.2,0.1,0.6,0.1,1.2v1.7c0,1.2,0,1.9,0.1,2.2c0.1,0.3,0.2,0.6,0.3,0.9h-1.3C200.5,443.5,200.4,443.2,200.4,442.8z M200.3,440
			c-0.5,0.2-1.1,0.3-2.1,0.5c-0.5,0.1-0.9,0.2-1.1,0.3c-0.2,0.1-0.4,0.2-0.5,0.4c-0.1,0.2-0.2,0.4-0.2,0.6c0,0.3,0.1,0.6,0.4,0.8
			s0.6,0.3,1.1,0.3c0.5,0,0.9-0.1,1.3-0.3s0.7-0.5,0.8-0.9c0.1-0.3,0.2-0.7,0.2-1.3V440z"/>
		<path class="st3" d="M203.5,443.7v-7.5h1.1v1c0.2-0.4,0.5-0.7,0.9-0.9c0.4-0.2,0.8-0.3,1.3-0.3c0.6,0,1,0.1,1.4,0.3
			c0.4,0.2,0.6,0.5,0.7,1c0.6-0.9,1.4-1.3,2.3-1.3c0.7,0,1.3,0.2,1.7,0.6s0.6,1,0.6,1.9v5.1h-1.3V439c0-0.5,0-0.9-0.1-1.1
			c-0.1-0.2-0.2-0.4-0.4-0.5c-0.2-0.1-0.5-0.2-0.8-0.2c-0.5,0-1,0.2-1.3,0.5c-0.3,0.3-0.5,0.9-0.5,1.7v4.3h-1.3v-4.8
			c0-0.6-0.1-1-0.3-1.3c-0.2-0.3-0.5-0.4-1-0.4c-0.4,0-0.7,0.1-1,0.3c-0.3,0.2-0.5,0.5-0.7,0.8s-0.2,0.9-0.2,1.6v3.9H203.5z"/>
		<path class="st3" d="M220.3,442.8c-0.5,0.4-0.9,0.7-1.4,0.8s-0.9,0.2-1.4,0.2c-0.8,0-1.4-0.2-1.9-0.6s-0.7-0.9-0.7-1.5
			c0-0.4,0.1-0.7,0.2-1s0.4-0.5,0.7-0.7c0.3-0.2,0.6-0.3,0.9-0.4c0.2-0.1,0.6-0.1,1.1-0.2c1-0.1,1.8-0.3,2.3-0.4c0-0.2,0-0.3,0-0.3
			c0-0.5-0.1-0.9-0.4-1.1c-0.3-0.3-0.8-0.4-1.4-0.4c-0.6,0-1,0.1-1.3,0.3c-0.3,0.2-0.5,0.6-0.6,1.1l-1.2-0.2c0.1-0.5,0.3-1,0.6-1.3
			c0.3-0.3,0.6-0.6,1.1-0.8c0.5-0.2,1-0.3,1.7-0.3c0.6,0,1.2,0.1,1.6,0.2c0.4,0.1,0.7,0.3,0.9,0.6c0.2,0.2,0.3,0.5,0.4,0.9
			c0,0.2,0.1,0.6,0.1,1.2v1.7c0,1.2,0,1.9,0.1,2.2c0.1,0.3,0.2,0.6,0.3,0.9h-1.3C220.5,443.5,220.4,443.2,220.3,442.8z M220.2,440
			c-0.5,0.2-1.1,0.3-2.1,0.5c-0.5,0.1-0.9,0.2-1.1,0.3c-0.2,0.1-0.4,0.2-0.5,0.4c-0.1,0.2-0.2,0.4-0.2,0.6c0,0.3,0.1,0.6,0.4,0.8
			s0.6,0.3,1.1,0.3c0.5,0,0.9-0.1,1.3-0.3s0.7-0.5,0.8-0.9c0.1-0.3,0.2-0.7,0.2-1.3V440z"/>
	</g>
</g>
</svg>
