<?xml version="1.0" encoding="utf-8"?>
<!-- Generator: Adobe Illustrator 19.0.0, SVG Export Plug-In . SVG Version: 6.00 Build 0)  -->
<svg version="1.1" id="Layer_1" xmlns="http://www.w3.org/2000/svg" xmlns:xlink="http://www.w3.org/1999/xlink" x="0px" y="0px"
	 viewBox="0 0 31.2 34" style="enable-background:new 0 0 31.2 34;" xml:space="preserve">
<style type="text/css">
	.st0{fill:#FFFFFF;}
</style>
<g>
	<path class="st0" d="M25,34c-4.8-0.4-9.1-2-12.9-4.8C4.6,23.7,0.5,16.2,0,6.8c-0.1-2.8,1.8-5.6,4.5-6.6C5.9-0.4,8.5,0.5,9,2
		c0.7,2.2,1.2,4.5,1.6,6.7c0.1,0.4-0.2,1-0.5,1.4c-0.5,0.7-1.1,1.2-1.8,1.8c-1,0.9-1.1,1.2-0.4,2.4c1.1,1.9,2.2,3.9,3.7,5.5
		c1.7,1.9,3.9,3.4,5.9,5.1c0.7,0.6,1.3,0.5,2-0.1c2.8-2.5,2.8-2.4,6.4-1.3c1,0.3,1.9,0.8,2.9,1.1c1.7,0.6,2.4,2,2.5,3.6
		c0.1,0.6-0.1,1.4-0.5,1.8c-1.1,1.2-2.4,2.2-3.7,3.2C26.5,33.8,25.7,33.8,25,34z"/>
</g>
</svg>
